<svg xmlns="http://www.w3.org/2000/svg" viewBox="0 0 750 500"><g id="freepik--background-complete--inject-133"><path d="M102.28,280.58c2.47,8.33-.14,18-3.59,26C97.09,298.24,98,288.38,102.28,280.58Z" style="fill:#ebebeb"></path><path d="M121.47,262.29c-6,9.94-5.86,23.3-4.08,34.76C122.26,286.86,124.45,273.83,121.47,262.29Z" style="fill:#ebebeb"></path><path d="M69,285.78c5.9,10.32,17.92,16.89,29.06,21C91.41,297.35,80.85,288.88,69,285.78Z" style="fill:#ebebeb"></path><path d="M70.28,309.15c9.61,4.28,21.63,2.69,31.75-.19C92.32,305.71,80.34,305.18,70.28,309.15Z" style="fill:#ebebeb"></path><path d="M133,297.52c-7,1.7-13,7.63-17.28,13.47C122.43,308.67,129.2,303.92,133,297.52Z" style="fill:#ebebeb"></path><path d="M106.63,284.94c.24,7.26,4.85,14.24,9.68,19.65C115.4,297.58,112.12,290,106.63,284.94Z" style="fill:#ebebeb"></path><path d="M118.3,286.73c.15,0-1,13.49-2.65,30.1s-3,30.07-3.18,30.06,1-13.49,2.66-30.11S118.16,286.71,118.3,286.73Z" style="fill:#e0e0e0"></path><path d="M84.85,296.49a8.1,8.1,0,0,1,1.18.82l3.12,2.34c2.63,2,6.29,4.69,10.42,7.55s7.94,5.34,10.72,7.11l3.29,2.1a8.54,8.54,0,0,1,1.18.81,6.77,6.77,0,0,1-1.29-.64c-.81-.44-2-1.11-3.38-2-2.83-1.69-6.68-4.12-10.82-7S91.5,302,88.92,300c-1.29-1-2.32-1.88-3-2.48A7.87,7.87,0,0,1,84.85,296.49Z" style="fill:#e0e0e0"></path><path d="M126.92,340.29a9.15,9.15,0,0,0-8-2,16.37,16.37,0,0,0-1.6-5.33,5.49,5.49,0,0,0-4.43-3c-1.86,0-3.75,1.6-3.51,3.45a4.38,4.38,0,0,0-3.53,1.68c-.88,1-1.89,5.37-1.89,5.37-3.68-.13-6.43,3.9-6.12,6.78l32.15-.34C130.27,344.07,129.07,342.19,126.92,340.29Z" style="fill:#ebebeb"></path><path d="M664.84,347.26c0,.14-129.62.26-289.47.26s-289.5-.12-289.5-.26,129.59-.26,289.5-.26S664.84,347.11,664.84,347.26Z" style="fill:#e0e0e0"></path><path d="M602.76,236.57c3.74,7.83,2.7,17.79.55,26.2C600.41,254.83,599.71,245,602.76,236.57Z" style="fill:#ebebeb"></path><path d="M619.41,215.47c-4.71,10.6-2.92,23.85.27,35C623.25,239.75,623.8,226.55,619.41,215.47Z" style="fill:#ebebeb"></path><path d="M570.75,247c7.45,9.26,20.36,13.85,32,16.16C594.67,254.84,582.9,248.15,570.75,247Z" style="fill:#ebebeb"></path><path d="M575.66,269.83c10.17,2.71,21.79-.76,31.33-5.2C596.88,263,585,264.33,575.66,269.83Z" style="fill:#ebebeb"></path><path d="M635.11,249.13c-6.71,2.79-11.6,9.58-15,16C626.4,261.81,632.33,256.05,635.11,249.13Z" style="fill:#ebebeb"></path><path d="M607.74,240.19c1.37,7.13,7,13.3,12.66,17.88C618.39,251.29,614,244.31,607.74,240.19Z" style="fill:#ebebeb"></path><path d="M619.54,240.11c.15,0,1.1,23.36,2.13,52.18s1.75,52.19,1.61,52.2-1.1-23.36-2.13-52.18S619.4,240.12,619.54,240.11Z" style="fill:#e0e0e0"></path><path d="M588.05,255a7.54,7.54,0,0,1,1.3.62l3.44,1.83c2.91,1.54,7,3.63,11.48,5.8s8.69,4,11.71,5.33l3.58,1.55a6.2,6.2,0,0,1,1.29.63,8.5,8.5,0,0,1-1.36-.44c-.87-.31-2.12-.78-3.65-1.4-3.06-1.22-7.25-3-11.79-5.2s-8.56-4.32-11.43-5.95c-1.44-.81-2.59-1.49-3.37-2A8,8,0,0,1,588.05,255Z" style="fill:#e0e0e0"></path><path d="M667.56,240.66c-3.14,15.83-15.77,29.49-28.33,39.62C643.75,265.23,653.69,249.76,667.56,240.66Z" style="fill:#ebebeb"></path><path d="M676.07,271.28c-10.52,9.67-26.69,12.82-41,13.49C646.21,276.38,661.4,270.53,676.07,271.28Z" style="fill:#ebebeb"></path><path d="M636.81,255c3.75,7.83,2.7,17.78.55,26.2C634.47,273.28,633.77,263.42,636.81,255Z" style="fill:#ebebeb"></path><path d="M651.83,261.29s-.06.16-.22.45-.45.74-.74,1.24c-.65,1.07-1.62,2.6-2.84,4.48-2.44,3.75-5.93,8.86-10,14.34s-8,10.3-10.89,13.71c-1.45,1.71-2.64,3.07-3.48,4l-1,1.06c-.23.24-.35.36-.37.34a2.38,2.38,0,0,1,.29-.41l.9-1.12,3.36-4.11c2.82-3.47,6.67-8.3,10.75-13.78s7.61-10.54,10.13-14.24l3-4.38.82-1.19A1.88,1.88,0,0,1,651.83,261.29Z" style="fill:#e0e0e0"></path><path d="M637.81,340a9.13,9.13,0,0,0-8-2,16.1,16.1,0,0,0-1.59-5.34,5.54,5.54,0,0,0-4.43-3c-1.86,0-3.75,1.61-3.51,3.46a4.34,4.34,0,0,0-3.53,1.67c-.88,1-1.89,5.38-1.89,5.38-3.68-.14-6.43,3.9-6.12,6.77l32.15-.33C641.16,343.78,640,341.89,637.81,340Z" style="fill:#ebebeb"></path><rect x="236.78" y="191.91" width="12.45" height="42.8" transform="translate(486.02 426.62) rotate(180)" style="fill:#e0e0e0"></rect><path d="M290.23,191.77s-.62-.41.73-2.18-.73-2.71-.73-2.71c-5.89,3.39-14.1,0-14.1,0s9.68-3,10.91-5.85c.91-2.13-.7-2.36-1.58-2.35,1-.1,3.13-.45,3.78-1.59.86-1.49-2.51-3.26-2.51-3.26a2.63,2.63,0,0,0,0-2.31c-.55-1.49-13.18-3.67-13.18-3.67,3.68.41,5-3.26,5-3.26s6.25.14,7.72-2.31-1-3.12-5.15-5.16-13.36-9.65-13.36-9.65,5.76-.54,7.36-1.9.12-1.63.12-1.63c6.86.68,4.54-3,4.54-3a30.65,30.65,0,0,1-14.1-9.1s4.29-1,6.49-3-1.83-2.59-1.83-2.59,8.09-1.08,3.43-4.07c-3.54-2.27-9.21-5.33-11-6.25,1.93.71,6.31-.14,6.31-.14,5.15-2.31,0-5.71,0-5.71-6-3.39-14.83-11.95-14.83-11.95s4.41,2.31,6.62,1.63-2.46-3.4-2.46-3.4,2.33.68,3.31,0-2.57-3.8-2.57-3.8c-5.28-3.44-11.8-12.45-14.53-16.32-2.72,3.87-9.23,12.88-14.52,16.32,0,0-3.55,3.12-2.57,3.8s3.31,0,3.31,0-4.66,2.72-2.46,3.4,6.62-1.63,6.62-1.63-8.82,8.56-14.83,11.95c0,0-5.15,3.4,0,5.71,0,0,4.38.85,6.31.14-1.76.92-7.43,4-11,6.25-4.66,3,3.43,4.07,3.43,4.07s-4,.55-1.83,2.59,6.49,3,6.49,3a30.65,30.65,0,0,1-14.1,9.1s-2.32,3.67,4.54,3c0,0-1.47.27.12,1.63s7.36,1.9,7.36,1.9-9.2,7.61-13.36,9.65-6.62,2.72-5.15,5.16,7.72,2.31,7.72,2.31,1.35,3.67,5,3.26c0,0-12.63,2.18-13.18,3.67a2.63,2.63,0,0,0,0,2.31s-3.37,1.77-2.51,3.26c.65,1.14,2.79,1.49,3.78,1.59-.88,0-2.49.22-1.58,2.35,1.23,2.86,10.91,5.85,10.91,5.85s-8.21,3.39-14.1,0c0,0-2.08,1-.73,2.71s.73,2.18.73,2.18-3.06-2.31-1.71,1.22,8.46,5.71,8.46,5.71-4,.68-2.82,2.85,6.37,4.76,12,5.3,13.24-1.5,13.24-1.5-5.15,2.72-1.59,4.22,7.6-1.91,7.6-1.91-.74,3.48,2.21,2.29a20.13,20.13,0,0,0,5.39-3.51s.92,5.13,2.75,3.9c1.84,1.23,2.76-3.9,2.76-3.9a20.08,20.08,0,0,0,5.4,3.51c2.94,1.19,2.2-2.29,2.2-2.29s4,3.4,7.6,1.91-1.59-4.22-1.59-4.22,7.6,2,13.24,1.5,10.79-3.13,12-5.3-2.82-2.85-2.82-2.85,7.11-2.18,8.46-5.71S290.23,191.77,290.23,191.77Z" style="fill:#e0e0e0"></path><rect x="70.61" y="199.08" width="10.44" height="35.89" transform="translate(151.65 434.05) rotate(180)" style="fill:#e0e0e0"></rect><path d="M115.42,199s-.52-.34.62-1.82a1.44,1.44,0,0,0-.62-2.28c-4.94,2.85-11.82,0-11.82,0s8.12-2.51,9.15-4.9c.76-1.79-.59-2-1.32-2,.82-.09,2.62-.38,3.17-1.33.72-1.26-2.11-2.74-2.11-2.74a2.2,2.2,0,0,0,0-1.93c-.46-1.26-11-3.08-11-3.08,3.08.34,4.21-2.74,4.21-2.74s5.25.12,6.48-1.93-.82-2.62-4.32-4.33-11.2-8.09-11.2-8.09,4.83-.46,6.16-1.6.11-1.36.11-1.36c5.75.57,3.8-2.51,3.8-2.51a25.72,25.72,0,0,1-11.82-7.63s3.6-.8,5.45-2.51S98.77,144,98.77,144s6.78-.91,2.87-3.41c-3-1.91-7.72-4.47-9.19-5.24,1.62.59,5.29-.12,5.29-.12,4.31-1.94,0-4.78,0-4.78-5-2.85-12.44-10-12.44-10s3.7,1.94,5.55,1.37S88.79,119,88.79,119s2,.57,2.78,0-2.16-3.19-2.16-3.19c-4.43-2.88-9.89-10.44-12.18-13.68-2.28,3.24-7.75,10.8-12.18,13.68,0,0-3,2.62-2.16,3.19s2.78,0,2.78,0-3.91,2.28-2.06,2.85,5.55-1.37,5.55-1.37-7.4,7.18-12.43,10c0,0-4.32,2.84,0,4.78,0,0,3.67.71,5.29.12-1.48.77-6.23,3.33-9.2,5.24-3.91,2.5,2.88,3.41,2.88,3.41s-3.39.46-1.54,2.17,5.44,2.51,5.44,2.51a25.72,25.72,0,0,1-11.82,7.63s-2,3.08,3.81,2.51c0,0-1.24.22.1,1.36s6.17,1.6,6.17,1.6-7.71,6.38-11.21,8.09-5.55,2.28-4.32,4.33,6.48,1.93,6.48,1.93,1.13,3.08,4.21,2.74c0,0-10.58,1.82-11.05,3.08a2.2,2.2,0,0,0,0,1.93s-2.82,1.48-2.1,2.74c.54,1,2.34,1.24,3.17,1.33-.74,0-2.09.18-1.32,2,1,2.39,9.15,4.9,9.15,4.9s-6.89,2.85-11.83,0a1.44,1.44,0,0,0-.61,2.28c1.13,1.48.61,1.82.61,1.82s-2.57-1.93-1.43,1,7.09,4.78,7.09,4.78-3.39.57-2.37,2.4,5.35,4,10.08,4.44,11.1-1.25,11.1-1.25-4.32,2.27-1.34,3.53,6.38-1.6,6.38-1.6-.62,2.92,1.85,1.92a16.92,16.92,0,0,0,4.52-2.94s.77,4.29,2.31,3.27c1.54,1,2.31-3.27,2.31-3.27a17.07,17.07,0,0,0,4.53,2.94c2.46,1,1.85-1.92,1.85-1.92s3.39,2.85,6.37,1.6S91,210.36,91,210.36s6.38,1.7,11.1,1.25,9-2.62,10.08-4.44-2.37-2.4-2.37-2.4,6-1.82,7.1-4.78S115.42,199,115.42,199Z" style="fill:#e0e0e0"></path><rect x="331.74" y="204.53" width="8.85" height="30.44" transform="translate(672.33 439.5) rotate(180)" style="fill:#e0e0e0"></rect><path d="M369.74,204.43s-.43-.29.53-1.54a1.22,1.22,0,0,0-.53-1.94c-4.18,2.42-10,0-10,0s6.88-2.12,7.76-4.15c.65-1.52-.5-1.69-1.12-1.67.7-.08,2.22-.33,2.69-1.13.61-1.07-1.79-2.32-1.79-2.32a1.89,1.89,0,0,0,0-1.65c-.39-1.06-9.37-2.61-9.37-2.61a3.56,3.56,0,0,0,3.57-2.31s4.45.09,5.49-1.65-.69-2.22-3.66-3.67-9.5-6.86-9.5-6.86,4.1-.39,5.23-1.35.09-1.16.09-1.16c4.88.48,3.22-2.13,3.22-2.13a21.8,21.8,0,0,1-10-6.47,12.05,12.05,0,0,0,4.62-2.13c1.57-1.45-1.31-1.83-1.31-1.83s5.75-.78,2.44-2.9c-2.52-1.62-6.55-3.79-7.8-4.45,1.37.51,4.49-.09,4.49-.09,3.66-1.65,0-4.06,0-4.06-4.27-2.42-10.55-8.51-10.55-8.51s3.14,1.65,4.71,1.16-1.75-2.41-1.75-2.41,1.66.48,2.36,0-1.83-2.71-1.83-2.71c-3.76-2.44-8.4-8.85-10.33-11.6-1.94,2.75-6.57,9.16-10.33,11.6,0,0-2.53,2.22-1.83,2.71s2.35,0,2.35,0-3.31,1.93-1.74,2.41,4.7-1.16,4.7-1.16-6.27,6.09-10.54,8.51c0,0-3.67,2.41,0,4.06,0,0,3.11.6,4.48.09-1.25.66-5.28,2.83-7.8,4.45-3.31,2.12,2.44,2.9,2.44,2.9s-2.87.38-1.3,1.83a12.05,12.05,0,0,0,4.62,2.13,21.87,21.87,0,0,1-10,6.47s-1.66,2.61,3.23,2.13c0,0-1.05.19.08,1.16s5.23,1.35,5.23,1.35-6.53,5.41-9.5,6.86-4.71,1.93-3.66,3.67,5.49,1.65,5.49,1.65a3.56,3.56,0,0,0,3.58,2.31s-9,1.55-9.38,2.61a1.89,1.89,0,0,0,0,1.65s-2.39,1.25-1.78,2.32c.46.8,2,1.05,2.69,1.13-.63,0-1.77.15-1.12,1.67.87,2,7.76,4.15,7.76,4.15s-5.84,2.42-10,0a1.22,1.22,0,0,0-.52,1.94c1,1.25.52,1.54.52,1.54s-2.18-1.64-1.22.87,6,4.06,6,4.06-2.88.48-2,2,4.53,3.38,8.54,3.77,9.42-1.07,9.42-1.07-3.66,1.94-1.13,3,5.4-1.35,5.4-1.35-.52,2.47,1.57,1.62a14.4,14.4,0,0,0,3.84-2.49s.65,3.64,2,2.77c1.3.87,2-2.77,2-2.77a14.25,14.25,0,0,0,3.83,2.49c2.1.85,1.57-1.62,1.57-1.62s2.88,2.41,5.41,1.35-1.14-3-1.14-3,5.41,1.45,9.42,1.07,7.67-2.22,8.54-3.77-2-2-2-2,5.05-1.55,6-4.06S369.74,204.43,369.74,204.43Z" style="fill:#e0e0e0"></path><rect x="117.44" y="187.23" width="13.81" height="47.49" transform="translate(248.69 421.94) rotate(180)" style="fill:#ebebeb"></rect><path d="M176.72,187.07s-.68-.45.82-2.41-.82-3-.82-3c-6.52,3.77-15.64,0-15.64,0s10.75-3.31,12.11-6.48c1-2.36-.78-2.62-1.75-2.6,1.1-.12,3.47-.51,4.2-1.77,1-1.66-2.79-3.62-2.79-3.62a2.92,2.92,0,0,0,0-2.56c-.61-1.66-14.62-4.07-14.62-4.07,4.08.45,5.57-3.62,5.57-3.62s6.94.15,8.57-2.56-1.09-3.47-5.71-5.73-14.82-10.7-14.82-10.7,6.39-.6,8.16-2.11.13-1.81.13-1.81c7.62.76,5-3.31,5-3.31a34.09,34.09,0,0,1-15.64-10.1s4.76-1.06,7.21-3.32-2-2.86-2-2.86,9-1.21,3.81-4.53c-3.93-2.52-10.21-5.91-12.17-6.93,2.15.79,7-.15,7-.15,5.71-2.56,0-6.33,0-6.33-6.66-3.77-16.45-13.27-16.45-13.27s4.89,2.57,7.34,1.81-2.72-3.77-2.72-3.77,2.58.76,3.67,0S142.32,77,142.32,77c-5.87-3.8-13.09-13.8-16.12-18.1-3,4.3-10.25,14.3-16.11,18.1,0,0-3.94,3.47-2.85,4.22s3.67,0,3.67,0-5.17,3-2.72,3.77,7.34-1.81,7.34-1.81-9.79,9.5-16.45,13.27c0,0-5.72,3.77,0,6.33,0,0,4.85.94,7,.15-1.95,1-8.23,4.41-12.16,6.93-5.17,3.32,3.81,4.53,3.81,4.53s-4.49.6-2,2.86,7.2,3.32,7.2,3.32a34.09,34.09,0,0,1-15.64,10.1s-2.58,4.07,5,3.31c0,0-1.64.3.13,1.81s8.16,2.11,8.16,2.11-10.2,8.44-14.82,10.7-7.35,3-5.71,5.73,8.56,2.56,8.56,2.56,1.5,4.07,5.58,3.62c0,0-14,2.41-14.62,4.07a2.92,2.92,0,0,0,0,2.56s-3.74,2-2.79,3.62c.73,1.26,3.1,1.65,4.2,1.77-1,0-2.77.24-1.75,2.6,1.36,3.17,12.1,6.48,12.1,6.48s-9.11,3.77-15.64,0c0,0-2.31,1.06-.81,3s.81,2.41.81,2.41-3.4-2.56-1.9,1.36,9.38,6.33,9.38,6.33-4.48.75-3.12,3.16,7.07,5.28,13.32,5.88,14.69-1.66,14.69-1.66-5.71,3-1.77,4.68,8.43-2.11,8.43-2.11-.81,3.85,2.45,2.53a22.33,22.33,0,0,0,6-3.89s1,5.69,3,4.33c2,1.36,3.06-4.33,3.06-4.33a22.38,22.38,0,0,0,6,3.89c3.27,1.32,2.45-2.53,2.45-2.53s4.49,3.77,8.44,2.11-1.77-4.68-1.77-4.68,8.43,2.27,14.68,1.66,12-3.46,13.33-5.88-3.13-3.16-3.13-3.16,7.89-2.41,9.39-6.33S176.72,187.07,176.72,187.07Z" style="fill:#ebebeb"></path><rect x="659.08" y="192.17" width="12.45" height="42.8" transform="translate(1330.62 427.14) rotate(180)" style="fill:#e0e0e0"></rect><path d="M712.53,192s-.62-.41.73-2.18-.73-2.71-.73-2.71c-5.89,3.39-14.1,0-14.1,0s9.68-3,10.91-5.85c.91-2.13-.7-2.36-1.58-2.35,1-.1,3.13-.45,3.78-1.59.86-1.49-2.51-3.26-2.51-3.26a2.63,2.63,0,0,0,0-2.31c-.55-1.49-13.18-3.67-13.18-3.67,3.68.41,5-3.26,5-3.26s6.25.14,7.72-2.31-1-3.12-5.15-5.16-13.36-9.65-13.36-9.65,5.76-.54,7.36-1.9.12-1.63.12-1.63c6.86.68,4.54-3,4.54-3a30.65,30.65,0,0,1-14.1-9.1s4.29-1,6.49-3-1.83-2.59-1.83-2.59,8.09-1.08,3.43-4.07c-3.54-2.27-9.21-5.33-11-6.25,1.93.71,6.31-.14,6.31-.14,5.15-2.31,0-5.7,0-5.7-6-3.4-14.83-12-14.83-12s4.41,2.31,6.62,1.63-2.46-3.4-2.46-3.4,2.33.68,3.31,0-2.57-3.8-2.57-3.8c-5.28-3.44-11.8-12.45-14.53-16.32-2.72,3.87-9.24,12.88-14.52,16.32,0,0-3.55,3.12-2.57,3.8s3.31,0,3.31,0-4.66,2.72-2.46,3.4,6.62-1.63,6.62-1.63-8.82,8.56-14.83,12c0,0-5.15,3.39,0,5.7,0,0,4.38.85,6.31.14-1.76.92-7.43,4-11,6.25-4.66,3,3.43,4.07,3.43,4.07s-4,.55-1.83,2.59,6.49,3,6.49,3a30.65,30.65,0,0,1-14.1,9.1s-2.32,3.67,4.54,3c0,0-1.47.27.12,1.63s7.36,1.9,7.36,1.9-9.2,7.61-13.36,9.65-6.62,2.72-5.15,5.16,7.72,2.31,7.72,2.31,1.35,3.67,5,3.26c0,0-12.63,2.18-13.18,3.67a2.63,2.63,0,0,0,0,2.31s-3.37,1.77-2.51,3.26c.65,1.14,2.79,1.49,3.78,1.59-.88,0-2.49.22-1.58,2.35,1.23,2.86,10.91,5.85,10.91,5.85s-8.21,3.39-14.1,0c0,0-2.08,1-.73,2.71s.73,2.18.73,2.18-3.06-2.31-1.71,1.22,8.46,5.71,8.46,5.71-4.05.68-2.82,2.85,6.37,4.76,12,5.3,13.24-1.49,13.24-1.49-5.15,2.71-1.59,4.21,7.6-1.91,7.6-1.91-.74,3.48,2.21,2.29a20.13,20.13,0,0,0,5.39-3.51s.92,5.13,2.75,3.9c1.84,1.23,2.76-3.9,2.76-3.9a20.08,20.08,0,0,0,5.4,3.51c2.94,1.19,2.2-2.29,2.2-2.29s4,3.4,7.6,1.91-1.59-4.21-1.59-4.21,7.6,2,13.24,1.49,10.79-3.13,12-5.3-2.82-2.85-2.82-2.85,7.11-2.18,8.46-5.71S712.53,192,712.53,192Z" style="fill:#e0e0e0"></path><rect x="497.69" y="196.88" width="11.08" height="38.09" transform="translate(1006.47 431.85) rotate(180)" style="fill:#e0e0e0"></rect><path d="M545.25,196.75s-.54-.36.66-1.93a1.53,1.53,0,0,0-.66-2.42c-5.23,3-12.54,0-12.54,0s8.62-2.66,9.71-5.2c.81-1.9-.62-2.11-1.4-2.09.88-.09,2.78-.41,3.36-1.42.76-1.33-2.23-2.9-2.23-2.9a2.33,2.33,0,0,0,0-2c-.5-1.34-11.73-3.27-11.73-3.27,3.27.36,4.47-2.9,4.47-2.9s5.56.12,6.87-2.06-.87-2.78-4.58-4.59-11.89-8.59-11.89-8.59,5.13-.48,6.54-1.69.11-1.45.11-1.45c6.11.6,4-2.66,4-2.66a27.35,27.35,0,0,1-12.55-8.11s3.82-.84,5.79-2.66-1.64-2.29-1.64-2.29,7.2-1,3-3.63c-3.15-2-8.19-4.74-9.76-5.56,1.72.63,5.62-.12,5.62-.12,4.58-2.06,0-5.08,0-5.08-5.35-3-13.2-10.64-13.2-10.64s3.92,2,5.89,1.45-2.18-3-2.18-3,2.07.61,2.94,0-2.29-3.38-2.29-3.38C513,105.42,507.15,97.4,504.72,94c-2.42,3.44-8.22,11.46-12.92,14.52,0,0-3.17,2.78-2.29,3.38s2.94,0,2.94,0-4.14,2.42-2.18,3,5.89-1.45,5.89-1.45-7.85,7.61-13.2,10.64c0,0-4.58,3,0,5.08,0,0,3.9.75,5.61.12-1.56.82-6.6,3.54-9.75,5.56-4.15,2.66,3.05,3.63,3.05,3.63s-3.6.48-1.64,2.29,5.79,2.66,5.79,2.66a27.35,27.35,0,0,1-12.55,8.11s-2.07,3.26,4,2.66c0,0-1.31.24.1,1.45s6.55,1.69,6.55,1.69-8.18,6.77-11.89,8.59-5.89,2.42-4.58,4.59,6.87,2.06,6.87,2.06,1.2,3.26,4.47,2.9c0,0-11.24,1.93-11.73,3.27a2.33,2.33,0,0,0,0,2s-3,1.57-2.23,2.9c.58,1,2.48,1.33,3.36,1.42-.78,0-2.21.19-1.4,2.09,1.09,2.54,9.71,5.2,9.71,5.2s-7.31,3-12.54,0a1.53,1.53,0,0,0-.66,2.42c1.2,1.57.66,1.93.66,1.93s-2.73-2.05-1.53,1.09,7.53,5.08,7.53,5.08-3.6.6-2.51,2.54,5.67,4.23,10.69,4.72,11.78-1.33,11.78-1.33-4.58,2.41-1.42,3.74,6.77-1.69,6.77-1.69-.66,3.1,2,2a17.72,17.72,0,0,0,4.8-3.12s.82,4.56,2.45,3.47c1.64,1.09,2.46-3.47,2.46-3.47a17.72,17.72,0,0,0,4.8,3.12c2.62,1.07,2-2,2-2s3.6,3,6.77,1.69-1.42-3.74-1.42-3.74,6.76,1.81,11.78,1.33,9.6-2.79,10.69-4.72-2.51-2.54-2.51-2.54,6.33-1.93,7.53-5.08S545.25,196.75,545.25,196.75Z" style="fill:#e0e0e0"></path><rect x="599.95" y="187.23" width="13.81" height="47.49" transform="translate(1213.71 421.94) rotate(180)" style="fill:#ebebeb"></rect><path d="M659.24,187.07s-.68-.45.81-2.41-.81-3-.81-3c-6.53,3.77-15.64,0-15.64,0s10.74-3.31,12.1-6.48c1-2.36-.77-2.62-1.75-2.6,1.1-.12,3.48-.51,4.2-1.77,1-1.66-2.79-3.62-2.79-3.62a2.92,2.92,0,0,0,0-2.56c-.61-1.66-14.62-4.07-14.62-4.07,4.08.45,5.58-3.62,5.58-3.62s6.93.15,8.57-2.56-1.09-3.47-5.72-5.73-14.82-10.7-14.82-10.7,6.39-.6,8.16-2.11.14-1.81.14-1.81c7.61.76,5-3.31,5-3.31A34.09,34.09,0,0,1,632,120.6s4.76-1.06,7.21-3.32-2-2.86-2-2.86,9-1.21,3.8-4.53c-3.92-2.52-10.21-5.91-12.16-6.93,2.14.79,7-.15,7-.15,5.71-2.56,0-6.33,0-6.33-6.67-3.77-16.46-13.27-16.46-13.27s4.9,2.57,7.34,1.81S624,81.25,624,81.25s2.59.76,3.68,0S624.83,77,624.83,77c-5.86-3.8-13.09-13.8-16.11-18.1-3,4.3-10.25,14.3-16.12,18.1,0,0-3.94,3.47-2.85,4.22s3.67,0,3.67,0-5.17,3-2.72,3.77S598,83.21,598,83.21s-9.79,9.5-16.45,13.27c0,0-5.71,3.77,0,6.33,0,0,4.85.94,7,.15-2,1-8.24,4.41-12.17,6.93-5.17,3.32,3.81,4.53,3.81,4.53s-4.49.6-2,2.86,7.21,3.32,7.21,3.32a34.09,34.09,0,0,1-15.64,10.1s-2.59,4.07,5,3.31c0,0-1.63.3.13,1.81s8.16,2.11,8.16,2.11-10.2,8.44-14.82,10.7-7.34,3-5.71,5.73,8.57,2.56,8.57,2.56,1.49,4.07,5.57,3.62c0,0-14,2.41-14.62,4.07a2.92,2.92,0,0,0,0,2.56s-3.74,2-2.79,3.62c.73,1.26,3.1,1.65,4.2,1.77-1,0-2.76.24-1.75,2.6,1.36,3.17,12.11,6.48,12.11,6.48s-9.12,3.77-15.64,0c0,0-2.32,1.06-.82,3s.82,2.41.82,2.41-3.4-2.56-1.91,1.36,9.39,6.33,9.39,6.33-4.49.75-3.13,3.16,7.07,5.28,13.33,5.88,14.68-1.66,14.68-1.66-5.71,3-1.76,4.68,8.43-2.11,8.43-2.11-.82,3.85,2.45,2.53a22.38,22.38,0,0,0,6-3.89s1,5.69,3.06,4.33c2,1.36,3-4.33,3-4.33a22.33,22.33,0,0,0,6,3.89c3.26,1.32,2.45-2.53,2.45-2.53s4.48,3.77,8.43,2.11-1.77-4.68-1.77-4.68,8.43,2.27,14.69,1.66,12-3.46,13.33-5.88-3.13-3.16-3.13-3.16,7.89-2.41,9.38-6.33S659.24,187.07,659.24,187.07Z" style="fill:#ebebeb"></path><path d="M703.25,235c0,.15-147,.26-328.23.26S46.75,235.12,46.75,235s146.94-.26,328.27-.26S703.25,234.83,703.25,235Z" style="fill:#ebebeb"></path><path d="M368.36,108.75a28.13,28.13,0,0,1,3.8-7.13,11,11,0,0,1,7.14-4.21c2.91-.32,6.12,1.1,7.07,3.6.41-5.64,1.3-11.43,4.42-16.33s8.94-8.74,15.17-8.4c5.88.33,10.91,4.28,13.71,9s3.76,10.08,4.68,15.34c2.23-2.47,6.93-1.69,9.26.71s2.91,5.75,3.41,8.92H367.68Z" style="fill:#ebebeb"></path><path d="M490.44,70.14a28.13,28.13,0,0,1,3.8-7.13,11,11,0,0,1,7.14-4.2c2.9-.33,6.12,1.09,7.06,3.6.42-5.65,1.3-11.44,4.42-16.33s8.95-8.75,15.18-8.41c5.88.33,10.91,4.28,13.71,9s3.76,10.08,4.68,15.35c2.22-2.48,6.93-1.7,9.26.7s2.91,5.76,3.4,8.92H489.76Z" style="fill:#f5f5f5"></path><path d="M156.22,64.85A28.09,28.09,0,0,1,160,57.72a11,11,0,0,1,7.15-4.2c2.9-.33,6.12,1.09,7.06,3.6.42-5.65,1.3-11.43,4.42-16.33s8.94-8.75,15.18-8.41c5.88.33,10.91,4.28,13.71,9s3.75,10.07,4.67,15.34c2.23-2.48,6.94-1.7,9.26.7s2.92,5.76,3.41,8.92H155.54Z" style="fill:#f5f5f5"></path><path d="M319.84,66a20.71,20.71,0,0,1,2.78-5.23,8.07,8.07,0,0,1,5.24-3.09c2.13-.23,4.49.81,5.18,2.64.31-4.14.95-8.38,3.24-12s6.56-6.42,11.13-6.17c4.32.24,8,3.14,10.06,6.58s2.75,7.39,3.43,11.26c1.63-1.82,5.08-1.25,6.79.51s2.14,4.22,2.5,6.54H319.34Z" style="fill:#f5f5f5"></path><path d="M666.64,59.87a20.48,20.48,0,0,1,2.78-5.22,8.05,8.05,0,0,1,5.24-3.09c2.13-.24,4.49.8,5.18,2.64.31-4.14.95-8.38,3.24-12s6.56-6.41,11.13-6.16c4.32.24,8,3.14,10.06,6.58S707,50,707.7,53.89c1.63-1.81,5.09-1.24,6.79.52s2.14,4.22,2.5,6.54H666.14Z" style="fill:#f5f5f5"></path><path d="M44.11,82.76a20.51,20.51,0,0,1,2.79-5.22,8,8,0,0,1,5.24-3.09c2.13-.24,4.49.8,5.18,2.64.3-4.14,1-8.39,3.24-12S67.12,58.7,71.69,59c4.31.24,8,3.14,10.06,6.58s2.75,7.39,3.43,11.25c1.63-1.81,5.08-1.24,6.79.52s2.14,4.22,2.5,6.54H43.61Z" style="fill:#f5f5f5"></path></g><g id="freepik--Floor--inject-133"><path d="M719.44,463.92c0,.15-154.22.26-344.42.26s-344.46-.11-344.46-.26,154.19-.26,344.46-.26S719.44,463.78,719.44,463.92Z" style="fill:#263238"></path></g><g id="freepik--Tree--inject-133"><path d="M660,361.6c3.15,6.58,2.27,14.94.46,22C658,376.94,657.44,368.64,660,361.6Z" style="fill:#455a64"></path><path d="M674.18,292.75c-3.95,8.9-2.45,20,.23,29.4C677.4,313.15,677.87,302.05,674.18,292.75Z" style="fill:#455a64"></path><path d="M633.11,370.32c6.26,7.78,17.1,11.63,26.89,13.58C653.21,377,643.32,371.32,633.11,370.32Z" style="fill:#455a64"></path><path d="M637.23,389.54c8.55,2.28,18.31-.63,26.33-4.36C655.06,383.77,645.06,384.92,637.23,389.54Z" style="fill:#455a64"></path><path d="M686.84,322.15c-5.63,2.35-9.74,8.05-12.56,13.47C679.52,332.81,684.51,328,686.84,322.15Z" style="fill:#455a64"></path><path d="M663.34,313.47c1.15,6,5.9,11.17,10.63,15C672.29,322.79,668.56,316.93,663.34,313.47Z" style="fill:#455a64"></path><path d="M674.63,310.65a2.47,2.47,0,0,1,0,.4c0,.28,0,.66,0,1.15,0,1-.08,2.52-.14,4.42-.18,3.83-.25,9.39-.37,16.25-.13,13.73.1,32.69.86,53.63s1.74,39.88,2.54,53.59c.41,6.83.74,12.37,1,16.23.12,1.9.21,3.38.27,4.42q0,.72.06,1.14a2,2,0,0,1,0,.4,2,2,0,0,1-.06-.39l-.11-1.15c-.08-1-.2-2.51-.36-4.4-.3-3.83-.69-9.37-1.14-16.23-.9-13.7-1.95-32.64-2.69-53.59s-.93-39.92-.71-53.66c.17-6.86.29-12.42.54-16.25.1-1.9.18-3.38.23-4.42,0-.48.06-.86.08-1.15A2.33,2.33,0,0,1,674.63,310.65Z" style="fill:#ae7461"></path><path d="M647.65,377.11a5.68,5.68,0,0,1,1.09.51l2.9,1.52c2.45,1.29,5.85,3,9.65,4.87s7.3,3.38,9.83,4.49l3,1.31a4.7,4.7,0,0,1,1.08.54,5.26,5.26,0,0,1-1.16-.35c-.73-.26-1.78-.65-3.07-1.16-2.57-1-6.1-2.53-9.91-4.36s-7.2-3.64-9.6-5c-1.21-.68-2.17-1.26-2.83-1.67A5.15,5.15,0,0,1,647.65,377.11Z" style="fill:#ae7461"></path><path d="M714.45,365c-2.63,13.31-13.24,24.78-23.8,33.29C694.45,385.68,702.8,372.68,714.45,365Z" style="fill:#455a64"></path><path d="M721.6,390.76c-8.84,8.13-22.42,10.78-34.42,11.34C696.51,395.05,709.28,390.13,721.6,390.76Z" style="fill:#455a64"></path><path d="M688.62,377.11c3.15,6.58,2.27,14.94.46,22C686.64,392.45,686.06,384.15,688.62,377.11Z" style="fill:#455a64"></path><path d="M701.24,382.36a10.19,10.19,0,0,1-.8,1.43c-.54.91-1.35,2.2-2.37,3.78-2,3.16-5,7.45-8.41,12.06s-6.71,8.65-9.16,11.51c-1.22,1.43-2.22,2.58-2.93,3.35a8.34,8.34,0,0,1-1.15,1.17,12.16,12.16,0,0,1,1-1.3l2.81-3.46c2.37-2.91,5.6-7,9-11.58s6.4-8.85,8.52-12c1-1.49,1.87-2.73,2.51-3.68A12.41,12.41,0,0,1,701.24,382.36Z" style="fill:#ae7461"></path><path d="M714.09,314.88c-2.36,9.46-10.39,17.32-18.27,23.05C699,329,705.46,320,714.09,314.88Z" style="fill:#455a64"></path><path d="M716.84,334.25c-6.42,5.62-16.12,7.26-24.66,7.45C698.94,336.85,708.1,333.58,716.84,334.25Z" style="fill:#455a64"></path><path d="M697.1,314.3c2.61,8,.32,17.47-2.83,25.29C692.5,331.57,693.1,322,697.1,314.3Z" style="fill:#455a64"></path><path d="M705.63,325.92c.11.09-6.86,8.82-15.56,19.49s-15.85,19.25-16,19.16,6.85-8.81,15.56-19.49S705.52,325.83,705.63,325.92Z" style="fill:#ae7461"></path><path d="M697.1,454.94A11.45,11.45,0,0,0,687,452.45a20.51,20.51,0,0,0-2-6.67A6.93,6.93,0,0,0,679.5,442c-2.33,0-4.69,2-4.4,4.33a5.43,5.43,0,0,0-4.41,2.09c-1.11,1.28-2.38,6.73-2.38,6.73-4.6-.17-8,4.89-7.66,8.48l40.32.26C701.36,460.35,699.79,457.31,697.1,454.94Z" style="fill:#ae7461"></path></g><g id="freepik--character-3--inject-133"><path d="M411.12,191.85c-1.73,13.27,4.57,27.35,11.76,38.65C423.32,217.47,419.6,202.67,411.12,191.85Z" style="fill:#455a64"></path><path d="M446.8,152.26c-5.43,12.24-3.37,27.53.32,40.4C451.23,180.29,451.86,165.05,446.8,152.26Z" style="fill:#455a64"></path><path d="M392,224.42c8.37,8.21,21.54,11.23,33.23,12.16C416.36,229.41,404.06,224.19,392,224.42Z" style="fill:#455a64"></path><path d="M384.8,243.2c7.35,9.13,20.08,13.66,31.58,15.94C408.4,251,396.79,244.38,384.8,243.2Z" style="fill:#455a64"></path><path d="M390.12,266.21c10,2.68,21.5-.74,30.91-5.12C411.06,259.43,399.31,260.79,390.12,266.21Z" style="fill:#455a64"></path><path d="M430.62,209c-5.33,6.46-6.65,16-6.59,24.41C428.59,226.63,431.53,217.55,430.62,209Z" style="fill:#455a64"></path><path d="M464.61,179c-7.73,3.23-13.38,11.06-17.25,18.49C454.35,193.79,461.37,187,464.61,179Z" style="fill:#455a64"></path><path d="M472.45,197.06c-11.44,4.76-19.79,16.35-25.51,27.35C457.58,218.71,467.71,208.88,472.45,197.06Z" style="fill:#455a64"></path><path d="M432.33,181c1.59,8.23,8.11,15.34,14.61,20.63C444.63,193.81,439.5,185.76,432.33,181Z" style="fill:#455a64"></path><path d="M447.84,177.14s0,.25,0,.74,0,1.23-.06,2.17c-.07,1.92-.17,4.73-.3,8.34s-.18,8.06-.26,13.21c0,2.58-.1,5.33-.09,8.25s0,6,0,9.25c0,13,.4,28.39.92,45.53s1.32,36,2.16,55.73c1.71,39.54,3.17,75.35,3.44,101.29,0,3.24.07,6.32.11,9.25s0,5.67,0,8.25c0,5.15,0,9.58-.15,13.21s-.19,6.42-.24,8.35c0,.94-.06,1.66-.08,2.17s0,.74,0,.74,0-.26,0-.75,0-1.22,0-2.17c0-1.92.08-4.73.15-8.34s.05-8.06.06-13.21c0-2.58,0-5.33,0-8.25s-.09-6-.14-9.25c-.37-25.93-1.89-61.72-3.6-101.27-.84-19.76-1.59-38.6-2.12-55.74s-.82-32.57-.81-45.54v-9.25c0-2.92.09-5.68.13-8.25.11-5.15.14-9.59.35-13.21s.3-6.42.39-8.35c.05-.94.09-1.66.12-2.17S447.84,177.14,447.84,177.14Z" style="fill:#ae7461"></path><path d="M416.38,210.21a.85.85,0,0,1,.11.25l.27.75c.24.7.57,1.67,1,2.9.86,2.56,2.07,6.2,3.57,10.69,3.05,9,7.24,21.47,11.86,35.21s8.8,26.22,11.72,35.27c1.47,4.52,2.63,8.19,3.41,10.73l.89,2.93.22.77a.85.85,0,0,1,.06.27,2,2,0,0,1-.11-.25l-.27-.75c-.23-.7-.56-1.67-1-2.9-.86-2.56-2.07-6.2-3.57-10.69-3-9-7.23-21.48-11.86-35.21S423.88,234,421,224.91c-1.46-4.52-2.63-8.19-3.41-10.74-.38-1.24-.68-2.22-.89-2.93l-.22-.76A1,1,0,0,1,416.38,210.21Z" style="fill:#ae7461"></path><path d="M402.35,251.61a7.3,7.3,0,0,1,1.29.62l3.46,1.82c2.93,1.52,7,3.57,11.55,5.7s8.74,3.95,11.77,5.25l3.6,1.54a8.54,8.54,0,0,1,1.29.62,7.91,7.91,0,0,1-1.37-.43c-.87-.31-2.12-.79-3.66-1.39-3.07-1.21-7.28-3-11.85-5.11s-8.62-4.25-11.5-5.86c-1.44-.8-2.6-1.48-3.38-2A7.15,7.15,0,0,1,402.35,251.61Z" style="fill:#ae7461"></path><path d="M486,212.74c1.74,13.28-4.57,27.36-11.76,38.65C473.81,238.36,477.52,223.57,486,212.74Z" style="fill:#455a64"></path><path d="M505.66,245c-8.36,8.21-21.53,11.23-33.22,12.17C481.32,250,493.62,244.76,505.66,245Z" style="fill:#455a64"></path><path d="M511.84,264.53c-7.35,9.14-20.08,13.67-31.58,16C488.24,272.32,499.86,265.72,511.84,264.53Z" style="fill:#455a64"></path><path d="M507,287.11c-10,2.68-21.5-.75-30.91-5.13C486.06,280.33,497.81,281.68,507,287.11Z" style="fill:#455a64"></path><path d="M466.5,230.54c5.33,6.47,6.66,16,6.59,24.42C468.54,248.19,465.59,239.1,466.5,230.54Z" style="fill:#455a64"></path><path d="M480.74,231.11c.14,0-6.56,21.87-14.95,48.74s-15.32,48.64-15.46,48.6,6.56-21.87,15-48.75S480.6,231.06,480.74,231.11Z" style="fill:#ae7461"></path><path d="M494.77,272.51a6.62,6.62,0,0,1-1.16.78c-.76.47-1.87,1.13-3.26,1.93-2.79,1.6-6.68,3.73-11.07,5.9s-8.45,3.94-11.43,5.15c-1.48.6-2.69,1.06-3.54,1.36a6,6,0,0,1-1.33.42,8.48,8.48,0,0,1,1.25-.61l3.48-1.51c2.93-1.29,7-3.12,11.34-5.28s8.29-4.24,11.12-5.75l3.34-1.79A7.45,7.45,0,0,1,494.77,272.51Z" style="fill:#ae7461"></path><path d="M474,453.24a13.6,13.6,0,0,0-12-3,24.17,24.17,0,0,0-2.37-7.94c-1.38-2.41-3.83-4.4-6.6-4.46s-5.59,2.39-5.24,5.15a6.47,6.47,0,0,0-5.25,2.49c-1.32,1.53-2.83,8-2.83,8-5.48-.2-9.57,5.82-9.11,10.1l48,.3C479.09,459.68,477.22,456.06,474,453.24Z" style="fill:#ae7461"></path><path d="M478.92,274.11a14.44,14.44,0,0,0,2.47,13.14c1.4,1.75,3.36,3.52,3.12,5.76s-2.61,3.78-2.78,6c-.19,2.62,2.67,4.38,3.63,6.82a5.2,5.2,0,0,1-2.39,6.3,20.24,20.24,0,0,0,10.76-2.06c.1-1.52.19-3,.29-4.57a3.72,3.72,0,0,0,2.78,3.64,8.49,8.49,0,0,0,4.88-.3,25.76,25.76,0,0,0,16.57-15.74" style="fill:#263238"></path><path d="M525,266.72a51.13,51.13,0,0,1-4.42-3.14c-2.82-2.68-3.7-7.27-7.15-9.06-2.46-1.28-5.45-.68-8.1.13s-5.38,1.85-8.11,1.36c-2-.36-3.79-1.52-5.78-1.89-2.85-.53-5.75.61-8.24,2.1a17.35,17.35,0,0,0-6.4,6.07,9.54,9.54,0,0,0-.65,8.56c.62,1.31,1.61,2.45,2,3.85s.12,3.17.31,4.75a7.63,7.63,0,0,0,6.73,6.48l31.67,10.27c4.44-1.07,11.91-8.53,12.86-13S528.61,269.52,525,266.72Z" style="fill:#263238"></path><path d="M483.74,282.87c-2.67-5.41-2.89-13.81,2.62-16.25L505,261.39c1.68-.74,2.27,2.41,3.15,4l20,36.38s3,.07,3.58-.71a.25.25,0,0,1,.46.14c0,3.88-.73,21.27-12,23.78-2.51.56-4.57-7.16-6.38-9.31L510,309.62c-1.86-3.14-2.6-4.44-2.59-4.4s-7.31,2.72-13.69-5.19C490.57,296.1,486.71,288.88,483.74,282.87Z" style="fill:#ffbf9d"></path><path d="M490.63,289.56a1.29,1.29,0,0,0,1.72.51,1.23,1.23,0,0,0,.57-1.67,1.28,1.28,0,0,0-1.72-.51A1.23,1.23,0,0,0,490.63,289.56Z" style="fill:#263238"></path><path d="M500.94,283.68a1.29,1.29,0,0,0,1.72.51,1.24,1.24,0,0,0,.58-1.67,1.3,1.3,0,0,0-1.73-.51A1.23,1.23,0,0,0,500.94,283.68Z" style="fill:#263238"></path><path d="M487.21,286.51c.25.12.81-1.18,2.17-1.84s2.73-.36,2.78-.63-.29-.39-.9-.55a3.5,3.5,0,0,0-2.34.27,3.42,3.42,0,0,0-1.61,1.7C487.07,286,487.09,286.46,487.21,286.51Z" style="fill:#263238"></path><path d="M498.93,279.86c.27.08.76-1.29,2.13-2.14s2.82-.74,2.86-1c0-.12-.34-.35-1-.41a3.81,3.81,0,0,0-2.42.59,3.7,3.7,0,0,0-1.55,1.92C498.75,279.42,498.81,279.83,498.93,279.86Z" style="fill:#263238"></path><path d="M500.1,290.52a9.42,9.42,0,0,0-2.15.77c-.33.15-.65.25-.83.07a1.81,1.81,0,0,1-.31-1c-.14-.91-.29-1.86-.44-2.86a46.66,46.66,0,0,0-1.47-7.28c-.17,0,.23,3.33.88,7.38l.48,2.85a2.1,2.1,0,0,0,.54,1.3.89.89,0,0,0,.76.16,2.7,2.7,0,0,0,.56-.23A8.43,8.43,0,0,0,500.1,290.52Z" style="fill:#263238"></path><path d="M507.44,305.22a25.58,25.58,0,0,0,9.87-9.81s.58,7.79-8.6,12Z" style="fill:#ff9a6c"></path><path d="M505.85,291.48a2.23,2.23,0,0,0-1.06-.3,1.73,1.73,0,0,0-1.05.58,2.85,2.85,0,0,0-.85,1.54,1.7,1.7,0,0,0,.61,1.59h0c.45.39,1.34.16,1.89-.08a2.73,2.73,0,0,0,1.22-1.27,1.54,1.54,0,0,0,.08-1.44A1.82,1.82,0,0,0,505.85,291.48Z" style="fill:#ff9a6c"></path><path d="M504.52,290c-.2.11.55,1.41,0,3s-2.05,2.22-2,2.41.45.07,1.05-.25a3.73,3.73,0,0,0,1.67-1.94,3.19,3.19,0,0,0-.05-2.44C504.94,290.21,504.61,290,504.52,290Z" style="fill:#263238"></path><path d="M496,275.32c.3.26,1.41-.58,2.92-1.22s2.87-.91,2.89-1.31c0-.19-.38-.38-1-.44a5.35,5.35,0,0,0-2.43.46,5.14,5.14,0,0,0-2,1.48C496,274.79,495.85,275.2,496,275.32Z" style="fill:#263238"></path><path d="M485.07,281.85c.4.14,1.18-.69,2.31-1.36s2.2-1,2.26-1.43c0-.2-.29-.38-.86-.4a4.33,4.33,0,0,0-3.68,2.25C484.86,281.42,484.88,281.78,485.07,281.85Z" style="fill:#263238"></path><path d="M509.13,260.29a8.22,8.22,0,0,0-5,.07,91.39,91.39,0,0,0-20.58,7.49c.09,1.74,1.93,2.94,3.66,3.07a17.1,17.1,0,0,0,5.12-.92c1.69-.42,3.6-.58,5.06.37s2.2,3,3.7,4.1c2.58,1.87,6.58.31,9.15,2.2,2,1.42,2.22,4.16,3.3,6.32a8.62,8.62,0,0,0,12.51,3.34l-13.31-22.17C511.82,262.62,510.79,261,509.13,260.29Z" style="fill:#263238"></path><path d="M535.7,268.49c-1.81-.24-3.81-.15-5.24-1.29-2.08-1.65-2.08-5.26-4.47-6.43-2.17-1.07-5,1-7.16-.15-1.67-.9-1.68-2.69-2.78-3.72a4,4,0,0,0-4.71.06l-.12,20.7c2.32,5.33,3.12,8.46,6,10.53a27.44,27.44,0,0,1,4.63,3.57,5.55,5.55,0,0,1,1.47,5.38c6.11-3.51,9.48-10.25,12.51-16.62l3.2-6.74a4.76,4.76,0,0,0,.63-2.21C539.58,269.75,537.51,268.73,535.7,268.49Z" style="fill:#263238"></path><path d="M535,279a3,3,0,0,1-.54.54,6.4,6.4,0,0,1-1.89,1.11,6.9,6.9,0,0,1-3.45.36,6.66,6.66,0,0,1-4-2.26,6.74,6.74,0,0,1-1.33-2.36,11,11,0,0,1-.39-2.89,10.26,10.26,0,0,0-.42-3,3.49,3.49,0,0,0-2-2.25c-1-.35-2.11.15-3.27.4a2.84,2.84,0,0,1-3.3-1.32,20.16,20.16,0,0,1-1.4-3.47,4,4,0,0,0-1-1.49,2.55,2.55,0,0,0-1.64-.61A7.09,7.09,0,0,0,507,263a7.62,7.62,0,0,1-3.59,1.16,6.78,6.78,0,0,1-3.56-.82,11.32,11.32,0,0,1-2.66-2.27,14.81,14.81,0,0,0-2.35-2.22A7.12,7.12,0,0,0,492,257.7a7.88,7.88,0,0,0-8.34,4.12,9.72,9.72,0,0,0-1.08,3.23,12.85,12.85,0,0,0,0,2.92s0-.06,0-.19a5.05,5.05,0,0,1-.09-.56,9.33,9.33,0,0,1,0-2.19,9.83,9.83,0,0,1,1-3.32,8.14,8.14,0,0,1,8.6-4.34,7.26,7.26,0,0,1,2.92,1.16,16.63,16.63,0,0,1,2.42,2.26A10.92,10.92,0,0,0,500,263a6.36,6.36,0,0,0,3.36.77,7.18,7.18,0,0,0,3.41-1.12,7.48,7.48,0,0,1,3.68-1.27,2.91,2.91,0,0,1,1.9.71,4.38,4.38,0,0,1,1.11,1.64,19.87,19.87,0,0,0,1.36,3.41,2.71,2.71,0,0,0,1.25,1.1,2.82,2.82,0,0,0,1.63.06c.56-.11,1.11-.3,1.69-.42a3.36,3.36,0,0,1,1.78,0,3.84,3.84,0,0,1,2.21,2.49,11,11,0,0,1,.42,3.1,10.63,10.63,0,0,0,.35,2.82,6.55,6.55,0,0,0,1.25,2.26,6.41,6.41,0,0,0,3.79,2.22,6.74,6.74,0,0,0,3.35-.28A7.43,7.43,0,0,0,535,279Z" style="fill:#455a64"></path><path d="M536,263.72a1.44,1.44,0,0,1,.51.34,2.48,2.48,0,0,1,.73,1.61A2.65,2.65,0,0,1,537,267a2.8,2.8,0,0,1-1,1.17,3.51,3.51,0,0,1-3.65.12,4.77,4.77,0,0,1-1.62-1.49,6.75,6.75,0,0,1-.9-2.19c-.39-1.57-.39-3.37-1.37-4.85a3.24,3.24,0,0,0-2-1.53,3.54,3.54,0,0,0-2.56.78,8.78,8.78,0,0,1-2.69,1.45,2.66,2.66,0,0,1-1.62-.17,3.72,3.72,0,0,1-1.3-1,12,12,0,0,1-1.55-2.72,6.72,6.72,0,0,0-1.77-2.3,7.32,7.32,0,0,0-5.12-1.71,10.35,10.35,0,0,0-4.65,1.83,14.46,14.46,0,0,1-4.07,1.93,9.58,9.58,0,0,1-6.39-.72,6.6,6.6,0,0,1-1.94-1.38,12.29,12.29,0,0,0,2,1.23,9.31,9.31,0,0,0,2.64.78A9.2,9.2,0,0,0,501,256a14.38,14.38,0,0,0,4-1.94,10.5,10.5,0,0,1,4.8-1.91,7.63,7.63,0,0,1,5.4,1.77,7.23,7.23,0,0,1,1.87,2.43,12.12,12.12,0,0,0,1.5,2.63,2.61,2.61,0,0,0,2.53,1,8.39,8.39,0,0,0,2.55-1.39,4,4,0,0,1,2.85-.83,3.56,3.56,0,0,1,2.28,1.72,6.82,6.82,0,0,1,1,2.52c.16.85.27,1.68.44,2.45a6.42,6.42,0,0,0,.84,2.1,4.44,4.44,0,0,0,1.49,1.41,3.26,3.26,0,0,0,3.38-.06,2.64,2.64,0,0,0,1-1.06,2.52,2.52,0,0,0,.22-1.2,2.44,2.44,0,0,0-.63-1.56C536.13,263.83,535.93,263.74,536,263.72Z" style="fill:#263238"></path><path d="M477.13,308.9a2.79,2.79,0,0,0,1.05,1.5,2.43,2.43,0,0,0,2.05.4,2.53,2.53,0,0,0,1.73-2,2.39,2.39,0,0,0-.33-1.56,4.87,4.87,0,0,0-1.22-1.31c-1-.78-2.34-1.42-3.12-2.76a5.68,5.68,0,0,1-.52-4.56,6.7,6.7,0,0,1,1.16-2.19,10.05,10.05,0,0,1,1.86-1.71,13.21,13.21,0,0,0,1.87-1.58,3.25,3.25,0,0,0,.9-2A4,4,0,0,0,482,289a7.75,7.75,0,0,0-1.37-1.69,16.85,16.85,0,0,1-2.84-3,6.25,6.25,0,0,1-.88-3.53,8.13,8.13,0,0,1,.8-2.89,14.78,14.78,0,0,0,.8-2.08,4.72,4.72,0,0,0,.12-1.87s0,0,0,.12a1.62,1.62,0,0,1,.08.37,3.82,3.82,0,0,1-.08,1.42,15,15,0,0,1-.75,2.13,8.11,8.11,0,0,0-.72,2.81,6,6,0,0,0,.88,3.34,16.77,16.77,0,0,0,2.81,2.95,8.11,8.11,0,0,1,1.45,1.76,4.34,4.34,0,0,1,.67,2.31,3.65,3.65,0,0,1-1,2.3A13.57,13.57,0,0,1,480,295a9.65,9.65,0,0,0-1.79,1.63,6.28,6.28,0,0,0-1.1,2.05,5.3,5.3,0,0,0,.47,4.25c.69,1.24,2,1.87,3,2.69a5.11,5.11,0,0,1,1.28,1.43,2.62,2.62,0,0,1,.35,1.75,2.79,2.79,0,0,1-2,2.21,2.67,2.67,0,0,1-3.06-1.63A1.44,1.44,0,0,1,477.13,308.9Z" style="fill:#263238"></path><path d="M552.17,395.94s-.83,50.61,1.08,55.25,4.36,8.18,12.54,9.81,57.41.61,57.41.61l-1.87-20-39.09-6.13,5.55-37.15s7.89-10.08,1.81-26.37C585.12,360,552.17,395.94,552.17,395.94Z" style="fill:#263238"></path><g style="opacity:0.30000000000000004"><path d="M549.92,399.77l0,.23c4.69,3.6,13.31,5.55,19.21,5.21s12.3-5,13.82-9.27C572.48,398.9,560.74,400.55,549.92,399.77Z"></path></g><path d="M574.88,448c-.12-.08,1.61-2.88,3.63-6.4s3.58-6.42,3.71-6.36a8.29,8.29,0,0,1-.82,2c-.57,1.2-1.43,2.84-2.44,4.61s-2,3.32-2.76,4.43A8.2,8.2,0,0,1,574.88,448Z" style="fill:#455a64"></path><path d="M605.56,461.91l20.07-.11s6.84,20.37,10.55,20.71l1.2-38.92-31.27-1.12Z" style="fill:#263238"></path><path d="M624.31,449.72a1.59,1.59,0,0,1,1.85-1,1.52,1.52,0,0,1,1.05,1.82,1.67,1.67,0,0,1-2,1.09,1.58,1.58,0,0,1-.88-2" style="fill:#e0e0e0"></path><g style="opacity:0.6000000000000001"><path d="M637.38,443.59h-3.15l0,37.31s.7,1.76,1.93,1.6Z" style="fill:#fff"></path></g><path d="M625.41,462.43c.19,0,.31-.95,1-1.87s1.45-1.38,1.38-1.56-1.18.07-1.93,1.19S625.24,462.46,625.41,462.43Z" style="fill:#e0e0e0"></path><path d="M627,466.56c.19.05.53-.76,1.36-1.38s1.68-.78,1.68-1-1.08-.35-2.09.45S626.79,466.55,627,466.56Z" style="fill:#e0e0e0"></path><path d="M631.79,469c0-.17-.9-.46-1.95,0s-1.5,1.33-1.35,1.42.73-.45,1.61-.81S631.76,469.22,631.79,469Z" style="fill:#e0e0e0"></path><path d="M511.17,305.4s3-6.48,8.08-8.57c4.07-1.68,9.49-.94,13.89.67,5.16,1.89,12.21,6.71,21.21,18.55,8.26,10.85,18.76,25.17,25,34.87,3.55,5.57,11.91,17.95,6.74,19.12l-6-1.6-40.39,1.07-.75-9.33h0l-16.07-12.56-8.45-10.2C513.84,337.77,511.17,305.4,511.17,305.4Z" style="fill:#5026D9"></path><path d="M497.43,435.39l.84,21.19s-21.26,8-21.49,11.89l41.14-.14.06-33.07Z" style="fill:#263238"></path><path d="M511,454.75a1.69,1.69,0,0,1,1.17,1.92,1.62,1.62,0,0,1-1.89,1.17,1.77,1.77,0,0,1-1.22-2,1.69,1.69,0,0,1,2.1-1" style="fill:#e0e0e0"></path><g style="opacity:0.6000000000000001"><path d="M517.92,468.33,517.8,465l-39.4,1.38s-1.83.8-1.62,2.09Z" style="fill:#fff"></path></g><path d="M497.6,456.37c0,.2,1,.29,2,.93s1.52,1.49,1.71,1.41-.12-1.24-1.33-2S497.56,456.19,497.6,456.37Z" style="fill:#e0e0e0"></path><path d="M493.29,458.17c0,.19.83.53,1.51,1.38s.89,1.75,1.09,1.74.32-1.15-.55-2.19S493.29,458,493.29,458.17Z" style="fill:#e0e0e0"></path><path d="M490.86,463.34c.18,0,.46-1-.06-2.06s-1.46-1.53-1.55-1.36.5.75.91,1.66S490.66,463.32,490.86,463.34Z" style="fill:#e0e0e0"></path><path d="M498,451.52c.08.18,1-.1,2.14,0s2,.42,2.12.25-.75-.88-2.08-.95S497.85,451.36,498,451.52Z" style="fill:#e0e0e0"></path><path d="M587.05,364.72l-46.51,3.7s-34.07,2-40.62,3.07-11.12,9-11.12,15.82,7.26,69.8,7.26,69.8h24.12L518,400.59a190.8,190.8,0,0,1,23.22,0c4.15.25,24.34,1.56,26.41,1.3,8.73-1.09,16.23-2.59,20.05-9.92C594.5,378.92,587.05,364.72,587.05,364.72Z" style="fill:#263238"></path><path d="M589.25,386.37a1.46,1.46,0,0,1,0,.46,12.92,12.92,0,0,1-.23,1.28,15.29,15.29,0,0,1-1.9,4.4,18.64,18.64,0,0,1-4.9,5.15,24.81,24.81,0,0,1-7.91,3.63,31.88,31.88,0,0,1-8.63,1.1c-2.67,0-5.07-.19-7.07-.35l-4.75-.41a16.26,16.26,0,0,1-1.74-.2,1.34,1.34,0,0,1,.45,0l1.3,0,4.76.25c4,.15,9.63.78,15.54-.9a24.84,24.84,0,0,0,7.77-3.51,18.77,18.77,0,0,0,4.87-5A17.78,17.78,0,0,0,589.25,386.37Z" style="fill:#455a64"></path><path d="M510.76,393.13a55.67,55.67,0,0,1,7.11,7.91,27.61,27.61,0,0,1-3.75-3.78A27.23,27.23,0,0,1,510.76,393.13Z" style="fill:#455a64"></path><path d="M506.42,327l-6.68,26.67-38,10.9,3.78,10.39s41.54-3.92,44.41-5.46,8.06-10.55,10.18-15.37,9.08-23.81,9.08-23.81Z" style="fill:#ffbf9d"></path><path d="M463.37,362.37s-5.36-2.74-7.49-4.19a12.15,12.15,0,0,0-3.16-1.45,3.93,3.93,0,0,0-3.17.48,23.62,23.62,0,0,0-5,4.35,2.14,2.14,0,0,0-.58,1,1.45,1.45,0,0,0,.84,1.43,2.1,2.1,0,0,0,.79.21,33.56,33.56,0,0,0-4.15,2c-.39.25-1.86,1.83-.41,3.21,1,.94,3.19.76,3.19.76s-.53,1.75.25,2.66,1.49,1.69,1.49,1.69a10.24,10.24,0,0,0,2.18,2.93c1,.63,3,1.66,3,1.66l3.22.91,10.74-4.89,9.61,1.06.75-16.05Z" style="fill:#455a64"></path><path d="M521.5,296.74s-8.51,4.06-10.63,8.84-7.5,28.21-7.5,28.21l23.5,8.74s5.55-16.46,7.14-22.82S540.59,301.15,521.5,296.74Z" style="fill:#5026D9"></path><path d="M534.5,317.89a2.31,2.31,0,0,1-.11.49c-.1.36-.22.81-.38,1.38l-1.52,5.15-5.38,17.69-.07.26-.25-.1-9.35-3.46L503.29,334l-.2-.07.05-.21c1.5-5.88,2.76-10.87,3.67-14.45.45-1.71.82-3.09,1.08-4.09l.3-1.08a2.3,2.3,0,0,1,.13-.37s0,.13-.05.38-.14.66-.23,1.1c-.24,1-.56,2.4-1,4.13-.87,3.59-2.07,8.59-3.49,14.5l-.15-.28,14.17,5.24,9.34,3.48-.33.17c2.24-7.09,4.17-13.22,5.56-17.65.69-2.13,1.25-3.86,1.66-5.1l.46-1.36A1.81,1.81,0,0,1,534.5,317.89Z" style="fill:#263238"></path><path d="M534.59,310.26a17.48,17.48,0,0,0-1.06-4.24,13.16,13.16,0,0,0-2.56-3.93,11.8,11.8,0,0,0-10.43-3.7,13,13,0,0,0-4.48,1.43,18.16,18.16,0,0,0-3.49,2.62,4.11,4.11,0,0,1,.74-.93,11.14,11.14,0,0,1,2.58-2,12.84,12.84,0,0,1,4.58-1.59,12,12,0,0,1,10.85,3.85,12.89,12.89,0,0,1,2.55,4.12,11.4,11.4,0,0,1,.74,3.19A3.92,3.92,0,0,1,534.59,310.26Z" style="fill:#263238"></path><path d="M452.09,361.79a37.66,37.66,0,0,1-3.55,1.29,36.4,36.4,0,0,1-3.49,1.42,8.72,8.72,0,0,1,3.31-1.9A8.62,8.62,0,0,1,452.09,361.79Z" style="fill:#263238"></path><path d="M447.26,370c0,.14-.7.33-1.62.41s-1.66,0-1.66-.11.72-.33,1.61-.41S447.24,369.81,447.26,370Z" style="fill:#263238"></path><path d="M447.6,375c0,.13-.53.29-1.16.08s-1-.65-.88-.75.52.09,1,.25S447.59,374.88,447.6,375Z" style="fill:#263238"></path><path d="M465.2,368.59a45.31,45.31,0,0,1-.22,6.59,8.45,8.45,0,0,1-.3-3.31A8.34,8.34,0,0,1,465.2,368.59Z" style="fill:#263238"></path></g><g id="freepik--character-2--inject-133"><polygon points="354.06 458.16 354.66 441.56 339.67 442.22 341.31 458.53 354.06 458.16" style="fill:#ae7461"></polygon><path d="M354.32,454.41l0,.85s14.59,5.59,14.79,8.33l-28.79.33.28-9.58A16.52,16.52,0,0,0,354.32,454.41Z" style="fill:#5026D9"></path><path d="M340.34,463.92l.07-2.3,27.56.53s1.29.54,1.16,1.44Z" style="fill:#e0e0e0"></path><path d="M354.16,458.71s-.11-.2-.09-.55a2.8,2.8,0,0,1,.39-1.29,2.93,2.93,0,0,1,1-1c.3-.17.51-.21.53-.18a4.28,4.28,0,0,0-1.78,3Z" style="fill:#263238"></path><path d="M352.64,458.4a3.09,3.09,0,0,1,1.83-3,16.4,16.4,0,0,0-1.13,1.4A14.13,14.13,0,0,0,352.64,458.4Z" style="fill:#263238"></path><path d="M356.39,459.37a1.93,1.93,0,0,1-.12-1.55c.22-.88.79-1.39.84-1.32s-.35.6-.54,1.39S356.48,459.35,356.39,459.37Z" style="fill:#263238"></path><path d="M356,456a1.73,1.73,0,0,1-.48-1,4.72,4.72,0,0,1-.15-1.15c0-.22,0-.45,0-.68a1.36,1.36,0,0,1,0-.39.56.56,0,0,1,.29-.39.44.44,0,0,1,.51.13,1.09,1.09,0,0,1,.19.37,4.46,4.46,0,0,1,.12.7,3.51,3.51,0,0,1-.12,1.17,1.77,1.77,0,0,1-.49.95s.16-.38.28-1a3.56,3.56,0,0,0,0-1.1,3.67,3.67,0,0,0-.12-.63c-.06-.21-.2-.37-.28-.31s-.15.26-.15.5,0,.45,0,.67a7.16,7.16,0,0,0,.08,1.12C355.84,455.62,356,456,356,456Z" style="fill:#263238"></path><path d="M356.2,455.9s-.05.05-.15.11l-.09,0,0-.1a3.28,3.28,0,0,1,.5-1.11,4.81,4.81,0,0,1,.61-.73l.41-.35a.82.82,0,0,1,.28-.15.45.45,0,0,1,.4.05.41.41,0,0,1,.13.49,1.08,1.08,0,0,1-.19.32,3,3,0,0,1-.42.5,3.74,3.74,0,0,1-.88.66,1.72,1.72,0,0,1-1,.29c0-.05.35-.16.85-.48a4.84,4.84,0,0,0,.79-.66,3.59,3.59,0,0,0,.37-.48c.14-.17.2-.37.14-.38s-.5.22-.72.41a5.24,5.24,0,0,0-.61.66,8.09,8.09,0,0,0-.62,1l-.06-.06C356.13,455.89,356.19,455.89,356.2,455.9Z" style="fill:#263238"></path><path d="M336.68,256.64a6.19,6.19,0,0,1-4,11.1c-2.17-.07-4.45-1.78-4.26-3.93a5.77,5.77,0,0,1-3.62,4.45,4.58,4.58,0,0,1-5.29-1.74,3.82,3.82,0,0,1,1.28-5.21,7.31,7.31,0,0,1-6-2.44,6.15,6.15,0,0,1-1-6.28,5.35,5.35,0,0,1,5.41-3.14,5.81,5.81,0,0,1,10.74-4.37,5.77,5.77,0,0,1,10.37,4.51,4.64,4.64,0,0,1-2.81,8.7" style="fill:#263238"></path><path d="M329.68,263.73c-.78-3.22-.17-4,1.51-5.73a5.28,5.28,0,0,1,5.78-1.28c.34-2.51.35-4.3,2.63-5.54s3.49-1,6.19-.53a10.08,10.08,0,0,1,6.88-1.43,9.35,9.35,0,0,1,5.92,3.43,7.74,7.74,0,0,1,7.14,4.28c.53,1.21.71,2.58,1.58,3.61a6.49,6.49,0,0,1,1.46,2.42,5.72,5.72,0,0,1-.37,4.32c-.46,1.25-1.44,3.05-.71,4.17,2.83,4.35-1.36,9.19-2.76,9.55l-24.65,8.64a6.13,6.13,0,0,1-6.13,1.21,5.17,5.17,0,0,1-3.41-4.77,7.57,7.57,0,0,1-3.22-9.46C324.54,274,324.74,268,329.68,263.73Z" style="fill:#263238"></path><path d="M364.13,267.79c-.48-6.1-7-12-12.89-11.26l-11.72,2.58a9.18,9.18,0,0,0-7.08,9.41l2,6.92.59,28.85-1,.38s1.87,13.08,12.63,12.08c9.67-.91,7.17-12.64,7.17-12.65l-.26-7.58a12.44,12.44,0,0,0,11-11C365.33,280.46,364.66,274.56,364.13,267.79Z" style="fill:#ae7461"></path><path d="M361,277.48a1.3,1.3,0,0,1-1.21,1.34,1.22,1.22,0,0,1-1.33-1.14,1.32,1.32,0,0,1,1.2-1.35A1.23,1.23,0,0,1,361,277.48Z" style="fill:#263238"></path><path d="M362.5,273.48c-.14.15-1-.51-2.2-.51s-2.12.64-2.25.49.09-.35.48-.65a3.14,3.14,0,0,1,1.81-.58,2.86,2.86,0,0,1,1.75.6C362.45,273.13,362.57,273.41,362.5,273.48Z" style="fill:#263238"></path><path d="M350.44,277.48a1.29,1.29,0,0,1-1.2,1.34,1.21,1.21,0,0,1-1.33-1.14,1.32,1.32,0,0,1,1.2-1.35A1.22,1.22,0,0,1,350.44,277.48Z" style="fill:#263238"></path><path d="M350,273.43c-.14.16-1-.51-2.2-.51s-2.12.64-2.25.49.08-.35.48-.65a3.14,3.14,0,0,1,1.81-.58,2.86,2.86,0,0,1,1.74.6C349.94,273.08,350.06,273.36,350,273.43Z" style="fill:#263238"></path><path d="M354.13,283a12.09,12.09,0,0,1,2.22-.39c.35,0,.68-.11.74-.3s-.07-.49-.24-.81l-1-2.07c-.39-.75-2.31-5-2.34-5.42a31.78,31.78,0,0,1,2.89,5.24l1,2.09a1.31,1.31,0,0,1,.19,1.07.91.91,0,0,1-.58.43,2.75,2.75,0,0,1-.59.08A10.21,10.21,0,0,1,354.13,283Z" style="fill:#263238"></path><path d="M353.71,296.54a24.53,24.53,0,0,1-13.32-3.32s3.45,7.17,13.34,6Z" style="fill:#6f4439"></path><path d="M350.29,269.94c-.15.44-1.34.14-2.76.28s-2.6.58-2.75.16c-.07-.19.15-.6.64-1a3.9,3.9,0,0,1,2.1-.83,3.49,3.49,0,0,1,2.1.49C350.12,269.36,350.35,269.73,350.29,269.94Z" style="fill:#263238"></path><path d="M362.83,269.1c-.22.4-1.24.11-2.43.21s-2.16.47-2.43.1c-.12-.18,0-.58.41-1a3.1,3.1,0,0,1,1.92-.81,3.05,3.05,0,0,1,2,.57C362.75,268.53,362.92,268.9,362.83,269.1Z" style="fill:#263238"></path><path d="M334.81,275.94s-6.45-2.16-6.11,4.05,6.34,4.54,6.34,4.36S334.81,275.94,334.81,275.94Z" style="fill:#ae7461"></path><path d="M333.06,282.11s-.1.09-.27.18a1.06,1.06,0,0,1-.79.07,2.67,2.67,0,0,1-1.33-2.32,3.49,3.49,0,0,1,.21-1.57,1.21,1.21,0,0,1,.74-.88.52.52,0,0,1,.64.26c.09.16.06.29.09.3s.12-.11.06-.37a.67.67,0,0,0-.26-.37.78.78,0,0,0-.59-.12,1.49,1.49,0,0,0-1,1,3.59,3.59,0,0,0-.27,1.75,2.79,2.79,0,0,0,1.68,2.59,1.11,1.11,0,0,0,.95-.23C333.06,282.27,333.08,282.12,333.06,282.11Z" style="fill:#6f4439"></path><path d="M353.43,286c0,.06-.28.2-.78.22a3,3,0,0,1-1.86-.63,2.9,2.9,0,0,1-1.05-1.64c-.11-.5,0-.81,0-.81s.11.29.28.71a3.47,3.47,0,0,0,1,1.39,3.33,3.33,0,0,0,1.6.66C353.12,285.94,353.41,285.91,353.43,286Z" style="fill:#263238"></path><g style="opacity:0.4"><path d="M345.2,280.38a2,2,0,0,1,1.17-.58,3.88,3.88,0,0,1,1,.09,1.4,1.4,0,0,1,.85.54.88.88,0,0,1,0,1,1.17,1.17,0,0,1-.68.41,3.86,3.86,0,0,1-1.35.13,1.41,1.41,0,0,1-1.09-.5A.83.83,0,0,1,345.2,280.38Z" style="fill:#6f4439"></path></g><g style="opacity:0.4"><path d="M360.19,280.52a1.93,1.93,0,0,1,1.17-.58,4.35,4.35,0,0,1,1,.09,1.46,1.46,0,0,1,.85.54.88.88,0,0,1,0,1,1.23,1.23,0,0,1-.69.41,3.59,3.59,0,0,1-1.35.13,1.42,1.42,0,0,1-1.09-.49A.86.86,0,0,1,360.19,280.52Z" style="fill:#6f4439"></path></g><path d="M330.65,267.84a7.86,7.86,0,0,1,1.72-4.63c1-1.33,1.58-4,2.95-5,3-2.06,7-2.06,10.55-2.74s9.05-2.61,12.28-1l8,9.3c-.38,1.56-2.8,2.34-3.75,1.66a3.12,3.12,0,0,1-1.19-3.11c-1.86.85-5.42-.28-6.06-2.22-1.88,2.46-4.64,3.18-7.25,1.52a4.83,4.83,0,0,1-7,4.35,5.72,5.72,0,0,1,1,4.19,3.11,3.11,0,0,1-3.15,2.5,6.74,6.74,0,0,1,1.63,3,3.83,3.83,0,0,1-.74,3.26,2.69,2.69,0,0,1-3.13.72,4.63,4.63,0,0,1-1.76-2.11l-2.12-4A12.35,12.35,0,0,1,330.65,267.84Z" style="fill:#263238"></path><path d="M327.15,266.93s.11-.39.45-1a5,5,0,0,1,2.13-2.08l.09,0,0-.09a5.75,5.75,0,0,1,.62-4.45,5.53,5.53,0,0,1,4.72-2.65,5.59,5.59,0,0,1,1.79.27l.24.09,0-.26a5.83,5.83,0,0,1,1.54-4.54,5.55,5.55,0,0,1,3.51-1.73,6,6,0,0,1,2.64.31c.6.21.9.4.91.37s-.07-.06-.21-.15a4.75,4.75,0,0,0-.66-.34,6,6,0,0,0-2.71-.41,5.69,5.69,0,0,0-3.69,1.74,6.11,6.11,0,0,0-1.66,4.79l.22-.18a5.91,5.91,0,0,0-1.9-.3,5.81,5.81,0,0,0-5,2.83,5.92,5.92,0,0,0-.57,4.67l.06-.14a5,5,0,0,0-2.14,2.23,3.78,3.78,0,0,0-.29.79A.81.81,0,0,0,327.15,266.93Z" style="fill:#455a64"></path><path d="M339.22,452.74l-3-68.06h0C330,376,328.42,369,329,360.57c0-.12,0-.24,0-.36l16.75-2.11,20.85,6c-.44.11-1.74,15.77-1.74,15.77s-4.22,66.11-6.82,72.38Z" style="fill:#263238"></path><polygon points="360.81 311.85 360.81 315.67 355.67 320.34 363.18 329.77 367.89 321.86 374.34 310.56 372.68 310.35 367.64 306.86 363.41 308.79 360.81 311.85" style="fill:#ae7461"></polygon><path d="M367.05,323l2.76-1.24c0-.1-4.55-10.37-.24-15.32,1.7-1.94,3.58-2.63,5.75-2.09a7.78,7.78,0,0,1,2.86,1.42l2-2.3c-.07-.06-6.92-5.81-12.86,1C361.7,310.84,366.83,322.5,367.05,323Z" style="fill:#e0e0e0"></path><path d="M408.19,322.11l-5.89,4.49-11,1.15,8-9.73-19.56-15.37-14.63,20.68a40.61,40.61,0,0,0,15,12.33l22.63-5.79,4.66,5.07Z" style="fill:#e0e0e0"></path><path d="M408.19,322.11c-.06.81-.36,4.89-.93,12.82l.19-.07-4.64-5.08-.05-.06-.08,0L380,335.48h.12a40.69,40.69,0,0,1-14.9-12.28v.24l5.38-7.61,9.25-13.08-.28,0,19.58,15.35,0-.23c-3,3.6-5.65,6.86-8,9.74l-.21.25.32,0,11-1.19h0l0,0,5.83-4.56-5.94,4.42h0l-11,1.1.12.21,8.06-9.71.1-.13-.13-.1L379.86,302.5l-.16-.13-.12.17-9.25,13.07L365,323.22l-.08.12.09.11a47,47,0,0,0,7,7.31,35.13,35.13,0,0,0,8,5.06l.05,0,.07,0L402.75,330l-.14,0,4.68,5.06.18.19V335C407.92,327,408.14,322.92,408.19,322.11Z" style="fill:#263238"></path><path d="M373.27,305.58s1.16-2.6-1.36-2.53-3.55,1.55-3.38,2a7.35,7.35,0,0,0,1.06,1.41,17.86,17.86,0,0,0-2.42,2.15,1.79,1.79,0,0,0,0,1.35s-.94,2,.38,2.12a2.6,2.6,0,0,0,1.93-.43s-1.18,1.13-1.07,1.79a1.11,1.11,0,0,0,1.62.65c.32-.15,2.71-2.21,2.71-2.21l1.56-1.52s.77-1.43-.49-1.84C373.81,308.5,374.92,306.21,373.27,305.58Z" style="fill:#ae7461"></path><path d="M373.27,305.58a1.91,1.91,0,0,1,.63.57,2.61,2.61,0,0,1-.2,2.3l-.05.12.12.05a.82.82,0,0,1,.61.62,1.73,1.73,0,0,1-.21,1l0,0-1.52,1.45c-.55.48-1.17,1-1.81,1.51a7.58,7.58,0,0,1-1,.72,1,1,0,0,1-1-.12.65.65,0,0,1-.25-.45,1.09,1.09,0,0,1,.17-.53,5.29,5.29,0,0,1,.85-1.05l-.27-.29a2.56,2.56,0,0,1-1.52.4,1.07,1.07,0,0,1-.58-.12.6.6,0,0,1-.2-.48,3,3,0,0,1,.3-1.26l0-.07,0-.08a1.69,1.69,0,0,1-.07-1.06A3.08,3.08,0,0,1,368,308c.57-.51,1.15-1,1.71-1.42l.16-.12-.14-.14a9.68,9.68,0,0,1-.67-.79c-.19-.26-.46-.54-.35-.73a2.52,2.52,0,0,1,1.24-1.17,4.73,4.73,0,0,1,1.54-.42,2.74,2.74,0,0,1,1.33.09,1,1,0,0,1,.62.78,2.17,2.17,0,0,1,0,.81c-.07.45-.17.68-.15.69a1.62,1.62,0,0,0,.26-.66,2.15,2.15,0,0,0,.06-.87,1.17,1.17,0,0,0-.7-.94,3,3,0,0,0-1.44-.16,4.91,4.91,0,0,0-1.63.42,2.67,2.67,0,0,0-1.43,1.33.58.58,0,0,0,0,.33.91.91,0,0,0,.11.28c.1.15.2.29.31.43s.44.55.68.82l0-.26c-.58.44-1.17.9-1.75,1.42l-.44.41a1.73,1.73,0,0,0-.38.55A2,2,0,0,0,367,310v-.15a3.43,3.43,0,0,0-.35,1.44,1,1,0,0,0,.37.78,1.49,1.49,0,0,0,.81.2,2.84,2.84,0,0,0,1.78-.5l-.26-.29a5.84,5.84,0,0,0-.92,1.13,1.45,1.45,0,0,0-.21.77,1,1,0,0,0,.38.7,1.4,1.4,0,0,0,1.44.18,7.3,7.3,0,0,0,1.06-.79c.64-.54,1.24-1,1.8-1.55l1.5-1.48,0,0v0a2,2,0,0,0,.2-1.23,1.06,1.06,0,0,0-.79-.79l.07.17a2.73,2.73,0,0,0,.1-2.47A1.17,1.17,0,0,0,373.27,305.58Z" style="fill:#6f4439"></path><path d="M369.15,312a18.39,18.39,0,0,0,2.31-1.81c1.26-1,2.44-1.57,2.4-1.67a5.36,5.36,0,0,0-2.64,1.36A7.74,7.74,0,0,0,369.15,312Z" style="fill:#6f4439"></path><path d="M367.35,309.93s.34-.27.8-.77A19.27,19.27,0,0,1,370,307.3a10.94,10.94,0,0,1,3.23-1.75,2.16,2.16,0,0,0-1.11.14,6.64,6.64,0,0,0-2.38,1.31,12.57,12.57,0,0,0-1.83,2C367.53,309.53,367.31,309.89,367.35,309.93Z" style="fill:#6f4439"></path><path d="M364.16,313.71a4.88,4.88,0,0,0,1.57-3.12l.21-2.14,1-.23s1.22,2.75,3.69-.06c0,0-1.38-2.81-2.7-3.07s-4.47.4-5,1.54-2.58,4.11-2.07,5.84" style="fill:#ae7461"></path><path d="M360.89,312.47a4.79,4.79,0,0,1,0-1.06,9.61,9.61,0,0,1,1.07-2.68l1-1.77a2.47,2.47,0,0,1,1.69-1.28,8.45,8.45,0,0,1,2.46-.45,2.27,2.27,0,0,1,1.2.22,4.12,4.12,0,0,1,1,.91,12.26,12.26,0,0,1,1.2,1.89l0-.22a3,3,0,0,1-1.85,1.2,1.72,1.72,0,0,1-1.54-1.08l-.06-.12-.13,0-1,.23-.12,0v.11c-.07.85-.14,1.64-.2,2.35a5.45,5.45,0,0,1-.53,1.68,6.49,6.49,0,0,1-.89,1.25s.13-.06.33-.24a3.94,3.94,0,0,0,.73-.92,5.28,5.28,0,0,0,.61-1.73c.08-.71.18-1.5.27-2.36l-.12.14,1-.21-.19-.1a2.68,2.68,0,0,0,.7.91,1.68,1.68,0,0,0,1.17.41,3.5,3.5,0,0,0,2.13-1.32l.08-.1-.05-.12a11.63,11.63,0,0,0-1.24-1.95,4.2,4.2,0,0,0-1.06-1,2.63,2.63,0,0,0-1.42-.28,8.82,8.82,0,0,0-2.57.5,4.57,4.57,0,0,0-1.11.54,2.3,2.3,0,0,0-.46.42,2,2,0,0,0-.17.27l-.12.24c-.33.64-.66,1.23-.94,1.79a8.67,8.67,0,0,0-1,2.79,2.82,2.82,0,0,0,0,.81A1.1,1.1,0,0,0,360.89,312.47Z" style="fill:#6f4439"></path><path d="M405.73,328.74c0,3.58,1,6.49,2.27,6.49s2.27-2.91,2.27-6.49-.86-6.94-2.08-6.63C407.39,322.31,405.73,325.16,405.73,328.74Z" style="fill:#e0e0e0"></path><path d="M405.73,328.74s0-.41.14-1.14a12.26,12.26,0,0,1,.76-3,7.38,7.38,0,0,1,1-1.84c.24-.28.52-.58.82-.46a1.54,1.54,0,0,1,.71.85,15.23,15.23,0,0,1,.88,5.52,12.5,12.5,0,0,1-1,5.46,1.9,1.9,0,0,1-.76.86.78.78,0,0,1-.91-.21,4.64,4.64,0,0,1-1-1.83,14.42,14.42,0,0,1-.57-3.05,7.32,7.32,0,0,0-.12-1.15,1.16,1.16,0,0,0,0,.3c0,.19,0,.48,0,.86a13.31,13.31,0,0,0,.46,3.12,4.73,4.73,0,0,0,1,2,1.5,1.5,0,0,0,.57.36,1,1,0,0,0,.71-.06,2.26,2.26,0,0,0,.94-1,9.07,9.07,0,0,0,.85-2.67,17,17,0,0,0,.24-3,15.16,15.16,0,0,0-1-5.66,1.82,1.82,0,0,0-.94-1,.77.77,0,0,0-.72.13,1.92,1.92,0,0,0-.45.45,7.27,7.27,0,0,0-1,1.95,11.29,11.29,0,0,0-.66,3.09c0,.38,0,.66,0,.86A1.16,1.16,0,0,0,405.73,328.74Z" style="fill:#263238"></path><path d="M379.75,302.69c.85-1.08,5.89,1.47,11.25,5.7s9,8.53,8.16,9.61-5.88-1.47-11.24-5.7S378.9,303.77,379.75,302.69Z" style="fill:#e0e0e0"></path><path d="M379.75,302.69a.59.59,0,0,0-.15.51,3.3,3.3,0,0,0,.55,1.42,23.48,23.48,0,0,0,3.6,4.26,57.94,57.94,0,0,0,6.36,5.29,43,43,0,0,0,4.12,2.65,20.34,20.34,0,0,0,2.34,1.15,7.46,7.46,0,0,0,1.29.4,2.72,2.72,0,0,0,.71.07,1,1,0,0,0,.75-.32,1,1,0,0,0,.13-.8,2.78,2.78,0,0,0-.23-.67,9,9,0,0,0-.69-1.17,20.48,20.48,0,0,0-1.66-2,42.8,42.8,0,0,0-3.54-3.39,56.34,56.34,0,0,0-6.63-4.95,23.11,23.11,0,0,0-5-2.52,3.46,3.46,0,0,0-1.51-.2.57.57,0,0,0-.46.27.93.93,0,0,1,.47-.19,3.67,3.67,0,0,1,1.45.27,24.77,24.77,0,0,1,4.88,2.61,60.25,60.25,0,0,1,6.54,5,44.05,44.05,0,0,1,3.49,3.38,19.28,19.28,0,0,1,1.62,2,7.28,7.28,0,0,1,.66,1.1c.18.37.32.84.15,1.07s-.68.19-1.07.1a6.72,6.72,0,0,1-1.23-.38,19.43,19.43,0,0,1-2.29-1.12,45,45,0,0,1-4.1-2.6,61.76,61.76,0,0,1-6.37-5.2,24.47,24.47,0,0,1-3.67-4.14,3.69,3.69,0,0,1-.6-1.35A.89.89,0,0,1,379.75,302.69Z" style="fill:#263238"></path><path d="M363.46,334.11l15.31-2.76s2.11,5.94,1.81,7.15-16.51,10-16.51,10Z" style="fill:#ae7461"></path><path d="M393.34,326.64s-5-.88-8.09,0-6.75,5-6.75,5l1.89,7.32s5.82.42,7.42.26,5.53-2.48,5.53-2.48,2.4-1.2,2.56-2.48c0,0,4.27-.93,3.79-3.6l-6.11-.17-3.21-1.28S393.5,328.48,393.34,326.64Z" style="fill:#ae7461"></path><path d="M390.41,334a5.22,5.22,0,0,0,1.62.25,17,17,0,0,0,4-.19c1.52-.25,3-.85,3.51-1.82a2,2,0,0,0,.3-1.2c0-.29-.08-.44-.1-.43s0,.16-.06.43a2.08,2.08,0,0,1-.37,1.05,5.11,5.11,0,0,1-3.35,1.58A46.78,46.78,0,0,1,390.41,334Z" style="fill:#6f4439"></path><path d="M385.83,329.59a21.3,21.3,0,0,0,2.32-.24,21.82,21.82,0,0,0,2.32-.13,4.51,4.51,0,0,0-2.36-.27A4.42,4.42,0,0,0,385.83,329.59Z" style="fill:#6f4439"></path><path d="M361.69,315.92c-4.08-10.74-7.39-15.76-7.39-15.76l-19.11-3.38c-4.11,5-6.21,12.11-6.63,21.05L327.63,365l-2,3.93s7.09,1.65,20.81,1.7c15.52.05,23.66-1.06,23.66-1.06S365.68,326.4,361.69,315.92Z" style="fill:#5026D9"></path><g style="opacity:0.30000000000000004"><path d="M368.24,353.37s-13.56,1.94-19.45-2-9-18.78-9.62-21.94c-.86-4.67-2.93-17-2.93-17l14.91,27.82,16.2,6.8Z"></path></g><path d="M352,305.79a8.18,8.18,0,0,1,2.75,4.45c1.25,5,4.92,21.44,4.92,21.44l9.06-.77,3.59,16.46s-13.05,2.35-19.35,1.74c-6.84-.67-10.39-15.26-10.39-15.26L337,316.4c-.67-2.08-1.18-5.35-.2-7.31" style="fill:#5026D9"></path><path d="M336.79,309.09a4.31,4.31,0,0,0-.54,1.76,13.45,13.45,0,0,0,.53,5.19c1.37,4.31,3.32,10.45,5.68,17.86h0a44.41,44.41,0,0,0,2.45,7,28.3,28.3,0,0,0,1.87,3.51,14.9,14.9,0,0,0,2.65,3.2,6.41,6.41,0,0,0,3.94,1.69,33.68,33.68,0,0,0,4.38,0c3-.14,6-.48,9-.89q2.87-.39,5.64-.88l.21,0-.05-.21c-1.27-5.79-2.48-11.33-3.6-16.46l0-.17-.16,0-9.06.78.18.14-4.51-19.31a28.41,28.41,0,0,0-.81-3.09,8.54,8.54,0,0,0-1.13-2.07,5.86,5.86,0,0,0-1.39-1.38s.13.12.36.35a8,8,0,0,1,.94,1.09,8.42,8.42,0,0,1,1.08,2.07c.31.86.48,1.92.76,3.08,1.05,4.67,2.56,11.33,4.36,19.33l0,.15h.15l9.06-.75-.2-.15c1.11,5.13,2.31,10.67,3.57,16.47l.16-.25c-1.83.32-3.71.61-5.61.87-3,.41-6,.75-9,.9s-6,.43-8-1.6a14.09,14.09,0,0,1-2.58-3.1,27.76,27.76,0,0,1-1.86-3.47,43.67,43.67,0,0,1-2.46-7h0L337,316a13.89,13.89,0,0,1-.62-5.12,7.39,7.39,0,0,1,.28-1.33A4,4,0,0,0,336.79,309.09Z" style="fill:#263238"></path><path d="M356.32,340.22c.12,0,.43-2.05,1.43-4.41s2.24-4,2.14-4.12a13.83,13.83,0,0,0-3.57,8.53Z" style="fill:#263238"></path><path d="M409.39,328c0,.14-.61.13-1.28,0s-1.18-.4-1.15-.54.59-.13,1.27,0S409.43,327.83,409.39,328Z" style="fill:#263238"></path><path d="M418.54,331.88a7.65,7.65,0,0,1-2.3-1,7.53,7.53,0,0,1-2.14-1.29,5.2,5.2,0,0,1,2.37.82A5.46,5.46,0,0,1,418.54,331.88Z" style="fill:#263238"></path><path d="M426.32,338.08c-.11.1-.95-.63-2-1.55s-1.81-1.7-1.72-1.81a5.34,5.34,0,0,1,2.07,1.43C425.74,337.08,426.42,338,426.32,338.08Z" style="fill:#263238"></path><path d="M432,346.24a16.66,16.66,0,0,1-2.53-4.3c.11-.08.85.78,1.55,2A5.52,5.52,0,0,1,432,346.24Z" style="fill:#263238"></path><path d="M435.69,355.49a6.39,6.39,0,0,1-1.06-2.27,6.25,6.25,0,0,1-.57-2.44,6.28,6.28,0,0,1,1.06,2.27A6,6,0,0,1,435.69,355.49Z" style="fill:#263238"></path><path d="M437.7,365.26a6.05,6.05,0,0,1-.65-2.42,6.15,6.15,0,0,1-.13-2.51,12.46,12.46,0,0,1,.78,4.93Z" style="fill:#263238"></path><path d="M437.88,372.75c-.15,0-.24-.58-.22-1.26s.16-1.24.3-1.24.24.56.22,1.26S438,372.76,437.88,372.75Z" style="fill:#263238"></path><path d="M409.69,331.92c-.07.12-.62,0-1.23-.34s-1.06-.66-1-.8.61,0,1.23.34S409.76,331.79,409.69,331.92Z" style="fill:#263238"></path><path d="M417.74,338c-.11.1-1-.61-2-1.52s-1.88-1.66-1.79-1.77,1.07.46,2.13,1.38S417.84,337.85,417.74,338Z" style="fill:#263238"></path><path d="M423.87,345.92c-.13.08-.78-.85-1.54-2a7.22,7.22,0,0,1-1.25-2.19c.11-.09.9.73,1.68,1.9A5.6,5.6,0,0,1,423.87,345.92Z" style="fill:#263238"></path><path d="M427.56,355.28a7.46,7.46,0,0,1-.93-2.35,7.8,7.8,0,0,1-.59-2.46,5.5,5.5,0,0,1,1.09,2.3A5.7,5.7,0,0,1,427.56,355.28Z" style="fill:#263238"></path><path d="M428.57,365.29a7.54,7.54,0,0,1-.26-2.52,7.8,7.8,0,0,1,.09-2.52,5.38,5.38,0,0,1,.43,2.51A5.51,5.51,0,0,1,428.57,365.29Z" style="fill:#263238"></path><path d="M427.53,372.75c-.14,0-.14-.61,0-1.28s.37-1.19.52-1.17.14.6,0,1.28S427.67,372.78,427.53,372.75Z" style="fill:#263238"></path><path d="M410.38,325.45c0,.14-.56.27-1.24.29s-1.25-.1-1.26-.24.55-.27,1.25-.29S410.38,325.31,410.38,325.45Z" style="fill:#263238"></path><path d="M421.18,327.64a9.46,9.46,0,0,1-2.69-.65,10.43,10.43,0,0,1-2.62-.92,10.28,10.28,0,0,1,5.31,1.57Z" style="fill:#263238"></path><path d="M430.53,333.44a7.71,7.71,0,0,1-2.28-1.56c-1.25-.85-2.21-1.64-2.13-1.77a7.78,7.78,0,0,1,2.44,1.36C429.75,332.45,430.63,333.34,430.53,333.44Z" style="fill:#263238"></path><path d="M437.25,342.17a9.82,9.82,0,0,1-1.6-2.26,9.44,9.44,0,0,1-1.37-2.4,10.06,10.06,0,0,1,3,4.66Z" style="fill:#263238"></path><path d="M440,349.69c-.14,0-.4-.48-.58-1.14s-.21-1.23-.07-1.27.4.47.58,1.14S440.15,349.66,440,349.69Z" style="fill:#263238"></path></g><g id="freepik--character-1--inject-133"><path d="M250,427l2.33,23.47s-22.32,8.64-22.53,13l43.28.18L269.68,427Z" style="fill:#263238"></path><path d="M265.68,448.53a1.88,1.88,0,0,1,1.24,2.12,1.67,1.67,0,0,1-2,1.29,2,2,0,0,1-1.3-2.26,1.71,1.71,0,0,1,2.2-1.09" style="fill:#e0e0e0"></path><path d="M273.07,463.62l-.16-3.7-41.43,1.21s-1.92.88-1.69,2.31Z" style="fill:#455a64"></path><path d="M251.61,450.21c0,.22,1.07.33,2.11,1.05s1.61,1.65,1.81,1.57-.14-1.38-1.42-2.22S251.56,450,251.61,450.21Z" style="fill:#fff"></path><path d="M247.09,452.17c-.05.21.87.59,1.6,1.54s.94,1.94,1.15,1.93.33-1.27-.59-2.42S247.09,452,247.09,452.17Z" style="fill:#fff"></path><path d="M244.56,457.87c.19.05.48-1.06-.07-2.28s-1.55-1.71-1.64-1.52.53.84,1,1.85S244.35,457.85,244.56,457.87Z" style="fill:#fff"></path><path d="M252,444.84c.09.21,1.05-.09,2.25,0s2.13.49,2.24.3-.8-1-2.21-1.08S251.84,444.67,252,444.84Z" style="fill:#fff"></path><path d="M266.87,284.21l-2.16,81.86,9.32,78-26.41,1.25s-12.87-63-15.32-74.48c-2.57-12.09-8.44-79.84-8.44-79.84Z" style="fill:#263238"></path><path d="M239.19,320.5C238,320.5,179,340.68,179,340.68l-23.18,59.71L134.64,382.3s17.56-57.78,21.56-62.7,54.67-27.19,54.67-27.19l15.86.5Z" style="fill:#263238"></path><path d="M225.72,312.21c.14,0,.81,5.72,1.48,12.8s1.1,12.83,1,12.84-.8-5.71-1.48-12.79S225.58,312.23,225.72,312.21Z" style="fill:#455a64"></path><path d="M142.71,370.82l-10.8,21s-23.43-4.89-26-1.35l36.22,23.69,17.06-32.57Z" style="fill:#263238"></path><path d="M144.16,397.44a1.89,1.89,0,0,1-.11,2.46,1.68,1.68,0,0,1-2.36,0,2,2,0,0,1,.14-2.6,1.72,1.72,0,0,1,2.44.27" style="fill:#e0e0e0"></path><path d="M142.16,414.12l1.88-3.18L108.6,389.41s-2.08-.31-2.66,1Z" style="fill:#455a64"></path><path d="M131.44,391.2c-.11.19.72.85,1.21,2s.45,2.26.66,2.29.63-1.22,0-2.63S131.51,391,131.44,391.2Z" style="fill:#fff"></path><path d="M126.58,390.38c-.15.16.41,1,.51,2.16s-.27,2.14-.09,2.25,1-.88.83-2.35S126.7,390.2,126.58,390.38Z" style="fill:#fff"></path><path d="M121.36,393.79c.13.15,1-.63,1.18-2s-.37-2.28-.55-2.17,0,1-.19,2.08S121.19,393.66,121.36,393.79Z" style="fill:#fff"></path><path d="M134.64,386.88c0,.22.94.49,1.9,1.21s1.52,1.57,1.71,1.47-.13-1.26-1.26-2.09S134.65,386.67,134.64,386.88Z" style="fill:#fff"></path><path d="M184.16,355.4c-.13-.06-1.45-6.83-2-8.46s-.54-5.12.26-6.55,3.23-5.62,4.17-7a6.93,6.93,0,0,1,3.34-3l.34-3.8,10.2,2.65s0,8.64.44,10.88.76,5.27,1,6.45-.19,2.65-2.32,2.48c0,0,.18,1.88-2.09,1.9a1.72,1.72,0,0,1-1.78,1.73c-1.8.06-6.65,1.17-7.48.9a4.13,4.13,0,0,1-1.5-1S187,356.64,184.16,355.4Z" style="fill:#ffbf9d"></path><path d="M196.25,203.39l3.94-2.48c8.88-5.18,20.28-8.4,20.28-8.4l6.47-2.29,27.81,18.54,5.53,46.86,5,21.67s2.48,4.13,2.48,6.2v5.16s-30.29,14.3-39,14.33c-11.46,0-20.24-9.17-20.24-9.17l-10.32-.41-6.61-52.24L182,214.52A142,142,0,0,1,196.25,203.39Z" style="fill:#5026D9"></path><path d="M199.62,258.27s8.81,24.09,9.28,27.55-1,13.75-1,13.75l-19.53-1.45s-1.05-12.3-1.33-13.43-4.87-24-4.87-24Z" style="fill:#ffbf9d"></path><path d="M208,298.91l-7.75,36.78-12,.8.1-39.36C194.84,294.46,201.41,295.81,208,298.91Z" style="fill:#ffbf9d"></path><path d="M124.56,414.4,288.31,243.84a3.8,3.8,0,0,0-.05-5.32l-.86-.86a3.81,3.81,0,0,0-5.45.07L119.07,409.14a3.81,3.81,0,0,0,1.81,6.31h0A3.8,3.8,0,0,0,124.56,414.4Z" style="fill:#6f4439"></path><path d="M190.2,353a5.71,5.71,0,0,1-3-1.16,5.23,5.23,0,0,1-.76-1.72c-.33-1.08-.63-2.17-.91-3.27a4,4,0,0,1-.07-2.52,2.14,2.14,0,0,1,2.4-1.22" style="fill:#ffbf9d"></path><path d="M187.84,343.15s0,0-.13,0a2.12,2.12,0,0,0-.42,0,2.25,2.25,0,0,0-1.41.56,2.11,2.11,0,0,0-.59.89,3.1,3.1,0,0,0-.1,1.22,17.18,17.18,0,0,0,.63,2.68c.27.94.48,1.84.79,2.63a2.71,2.71,0,0,0,.65,1,3.8,3.8,0,0,0,.94.51,6.55,6.55,0,0,0,1.45.44,1.06,1.06,0,0,0,.55,0s-.19,0-.54-.09a8,8,0,0,1-1.41-.49,4.11,4.11,0,0,1-.87-.51,2.57,2.57,0,0,1-.59-1c-.29-.77-.49-1.69-.77-2.62a20.51,20.51,0,0,1-.64-2.64,2.86,2.86,0,0,1,.08-1.14,1.88,1.88,0,0,1,.52-.84,2.22,2.22,0,0,1,1.32-.59C187.65,343.12,187.84,343.17,187.84,343.15Z" style="fill:#ff9a6c"></path><path d="M194.17,351.2a4.45,4.45,0,0,1-4.35-2.08,14.38,14.38,0,0,1-1.8-4.75,3.25,3.25,0,0,1,0-2.58,2.09,2.09,0,0,1,1.65-.84,2.81,2.81,0,0,1,2.25.83" style="fill:#ffbf9d"></path><path d="M192,341.78a1.08,1.08,0,0,0-.11-.14,2.1,2.1,0,0,0-.39-.33,3,3,0,0,0-1.8-.43,2.5,2.5,0,0,0-1.24.41,1.82,1.82,0,0,0-.74,1.31,4.56,4.56,0,0,0,.19,1.63c.14.55.28,1.11.44,1.69a10.69,10.69,0,0,0,1.32,3.11,5.35,5.35,0,0,0,2.05,1.85,3.74,3.74,0,0,0,1.81.43,2.51,2.51,0,0,0,.5-.06l.17-.05s-.24,0-.67,0a4.05,4.05,0,0,1-1.75-.48,5.45,5.45,0,0,1-1.95-1.82,11.25,11.25,0,0,1-1.28-3.07c-.16-.57-.3-1.13-.44-1.68a4.56,4.56,0,0,1-.2-1.56,1.58,1.58,0,0,1,.65-1.18,2.26,2.26,0,0,1,1.15-.41,3.12,3.12,0,0,1,1.75.35C191.8,341.6,192,341.8,192,341.78Z" style="fill:#ff9a6c"></path><path d="M197.12,348.67c-1.29-.18-2.72-.45-3.5-1.49a6.51,6.51,0,0,1-.77-1.77c-.23-.66-.52-1.3-.71-2a3.84,3.84,0,0,1-.09-2.07,2.11,2.11,0,0,1,1.36-1.48,1.44,1.44,0,0,1,1.72.83c.1.3.08.63.16,1,.25,1,1.5,1.6,1.62,2.64a2.06,2.06,0,0,1,2.31-.24" style="fill:#ffbf9d"></path><path d="M199.22,344.06s-.05,0-.15-.09a1.7,1.7,0,0,0-.46-.16,2.12,2.12,0,0,0-1.75.44l.11,0a2.55,2.55,0,0,0-.78-1.39,2.69,2.69,0,0,1-.86-1.58,1.78,1.78,0,0,0-.32-1,1.53,1.53,0,0,0-1-.54,1.66,1.66,0,0,0-1.16.28,2.3,2.3,0,0,0-.77,1,3.4,3.4,0,0,0-.13,2.13,12.3,12.3,0,0,0,.64,1.86c.23.57.38,1.14.61,1.66a2.79,2.79,0,0,0,1,1.2,5.27,5.27,0,0,0,2.11.75l.6.08h.21s-.28-.06-.8-.17a5.49,5.49,0,0,1-2-.79,2.68,2.68,0,0,1-.92-1.15c-.22-.5-.36-1.08-.59-1.66a13.25,13.25,0,0,1-.62-1.84,3.23,3.23,0,0,1,.12-2A1.71,1.71,0,0,1,194,340a1.32,1.32,0,0,1,.88.47,1.55,1.55,0,0,1,.28.93,2.09,2.09,0,0,0,.34.95,8.89,8.89,0,0,0,.59.71,2.52,2.52,0,0,1,.77,1.3v.13l.1-.09a2.06,2.06,0,0,1,1.65-.47A3.12,3.12,0,0,1,199.22,344.06Z" style="fill:#ff9a6c"></path><path d="M259.85,248.82s-5.87,10.76-6.31,13-1.36,7.16-1.36,7.16l5-5.28,1.53,11s.6,1.73,3.47,1.73c1.29,0,2.77-1.64,2.77-1.64a4.11,4.11,0,0,0,3.88-.22,7.68,7.68,0,0,0,2.77-4,1.88,1.88,0,0,0,2.55-.67c1.22-1.55.66-19.36.66-19.36Z" style="fill:#ffbf9d"></path><path d="M232.79,189.62l31.26-1.7a219.27,219.27,0,0,1,23,.35s4.39-.3,8.63,5.2.18,16.66.18,16.66c-1.32,3.1-14.58,27.5-22.17,42.7l-13.81-4,14.5-40.46-24.52,2.8L234,207.4l-7.34-13.46Z" style="fill:#ffbf9d"></path><path d="M265.21,265.79a35.61,35.61,0,0,0-.16,4.48,35.1,35.1,0,0,0-.15,4.47,12,12,0,0,0,.74-4.45A11.66,11.66,0,0,0,265.21,265.79Z" style="fill:#ff9a6c"></path><path d="M272.11,265.66a8.15,8.15,0,0,0-.45,2.61,8.59,8.59,0,0,0-.17,2.64,4.93,4.93,0,0,0,.75-2.57A5.07,5.07,0,0,0,272.11,265.66Z" style="fill:#ff9a6c"></path><path d="M105.28,453.73c-.48,0,15.12-13.21,25.68-22.12a15.49,15.49,0,0,0-2.62-25.48l-.49-.26C111.29,397.22,95.9,404,87.72,410s-33.19,30.79-33.19,30.79Z" style="fill:#e0e0e0"></path><path d="M30.65,455.28a12.27,12.27,0,0,1,8,0,10.23,10.23,0,0,1,13.26-10A10,10,0,0,1,53.3,437a12.51,12.51,0,0,1,3.52-3.08,11.37,11.37,0,0,1,6.75-.65,5.83,5.83,0,0,1,4.76,6.58,6.74,6.74,0,0,1,7.75-1.26,6.64,6.64,0,0,1,5.13-4.72,14.76,14.76,0,0,1,8.05.33,9.38,9.38,0,0,1,5.33,7.16,17.1,17.1,0,0,1,16.23,2.06c2.39,1.76,4.37,5.09,2.74,7.56a17.31,17.31,0,0,1,7.48,2.78c2.14,1.62,6.84,5.92,5.39,10.14l-101.67.91C24.1,459.81,28.12,456.32,30.65,455.28Z" style="fill:#ae7461"></path><path d="M127.38,411.47s.41.4,1,1.21a9.18,9.18,0,0,1,1.59,3.91,12.49,12.49,0,0,1-.62,6.2,19.2,19.2,0,0,1-4.25,6.41,77.58,77.58,0,0,1-5.8,5.27l-4.86,4.2-3.25,2.87a10.16,10.16,0,0,0-1.14,1.11,7.47,7.47,0,0,0,1.29-.94l3.37-2.72c1.43-1.2,3.1-2.58,4.94-4.11a69.79,69.79,0,0,0,5.87-5.27,19,19,0,0,0,4.33-6.64,12.61,12.61,0,0,0,.53-6.46,8.85,8.85,0,0,0-1.82-4,5.26,5.26,0,0,0-.85-.83C127.51,411.53,127.4,411.45,127.38,411.47Z" style="fill:#263238"></path><path d="M102.39,406.93c0,.19,3.84-.91,8.6-.5s8.35,2.05,8.41,1.87a7.82,7.82,0,0,0-2.3-1.13,23.09,23.09,0,0,0-12.25-1A7.87,7.87,0,0,0,102.39,406.93Z" style="fill:#263238"></path><polygon points="130.87 407.83 136.05 402.44 129.97 397.67 122.58 404.75 114.85 412.86 120.89 418.35 130.87 407.83" style="fill:#e0e0e0"></polygon><path d="M120.89,418.35a96.15,96.15,0,0,0,7.57-7.25,94,94,0,0,0,7.15-7.65,97,97,0,0,0-7.57,7.24C124,414.81,120.77,418.23,120.89,418.35Z" style="fill:#263238"></path><path d="M115.13,412.23c.12.12,3.51-3.13,7.57-7.24a92.49,92.49,0,0,0,7.16-7.66,92.22,92.22,0,0,0-7.57,7.25A95.35,95.35,0,0,0,115.13,412.23Z" style="fill:#263238"></path><path d="M279.56,199.77c.11.11-1.38,1.9-2.83,4.36s-2.28,4.64-2.43,4.58a13.59,13.59,0,0,1,2-4.85A14,14,0,0,1,279.56,199.77Z" style="fill:#ff9a6c"></path><path d="M213.85,174.52a72.76,72.76,0,0,0-.69-12.52,25.31,25.31,0,0,0-4.72-11.49c-.39-.5-3.4-3.73-4-3.48-.42.18,1.82,3.37,1.72,3.82a21.52,21.52,0,0,0,1.52,12.69,56.1,56.1,0,0,0,6.15,11" style="fill:#263238"></path><path d="M188.22,145.49l-.91.35A18.77,18.77,0,0,0,176,168.61c2.54,8.74,5.45,18.36,7.24,22.89,3.69,9.37,13.66,7.26,13.66,7.26s1.19,3.51,1.19,3.51l10.24,9.87,11.25-19.32-10.15-33.63C206.51,149.09,198.24,142.34,188.22,145.49Z" style="fill:#ffbf9d"></path><path d="M196.85,198.76a24.39,24.39,0,0,0,10.89-8.28s-.26,8.2-10,10.92Z" style="fill:#ff9a6c"></path><path d="M182.25,175.93a1.45,1.45,0,0,0,1.82.86,1.37,1.37,0,0,0,.92-1.74,1.42,1.42,0,0,0-1.81-.86A1.39,1.39,0,0,0,182.25,175.93Z" style="fill:#263238"></path><path d="M179.53,172c.24.11,1-1,2.42-1.57s2.78-.23,2.87-.47-.24-.36-.83-.52a3.94,3.94,0,0,0-2.38.16,3.69,3.69,0,0,0-1.84,1.47C179.45,171.59,179.42,172,179.53,172Z" style="fill:#263238"></path><path d="M195.09,171.82a1.45,1.45,0,0,0,1.82.87,1.37,1.37,0,0,0,.92-1.74,1.44,1.44,0,0,0-1.81-.87A1.38,1.38,0,0,0,195.09,171.82Z" style="fill:#263238"></path><path d="M193.84,167c.24.11,1-1,2.42-1.58s2.78-.22,2.87-.46-.24-.36-.83-.52a4,4,0,0,0-2.38.15,3.81,3.81,0,0,0-1.84,1.48C193.76,166.54,193.73,166.91,193.84,167Z" style="fill:#263238"></path><path d="M192.88,180.05a9.74,9.74,0,0,0-2.51.47c-.39.1-.77.16-.92-.07a2,2,0,0,1-.17-1.19c0-1,0-2.1,0-3.23,0-4.58-.16-8.29-.34-8.29s-.33,3.72-.33,8.3c0,1.13,0,2.2,0,3.23a2.28,2.28,0,0,0,.36,1.52,1,1,0,0,0,.81.31,2.58,2.58,0,0,0,.66-.15A10.68,10.68,0,0,0,192.88,180.05Z" style="fill:#263238"></path><path d="M191.66,162.61c.33.29,1.59-.63,3.29-1.31s3.22-1,3.25-1.41c0-.21-.41-.44-1.13-.51a6.2,6.2,0,0,0-5,2.08C191.64,162,191.5,162.47,191.66,162.61Z" style="fill:#263238"></path><path d="M177.85,167.78c.42.22,1.48-.55,2.9-1.08s2.71-.74,2.87-1.18c.06-.22-.25-.48-.89-.6a4.93,4.93,0,0,0-2.57.32,4.82,4.82,0,0,0-2.08,1.5C177.7,167.27,177.66,167.67,177.85,167.78Z" style="fill:#263238"></path><path d="M211.26,166.45c.13-.13,5.74-4.37,8,2.15s-4.77,7.42-4.84,7.23S211.26,166.45,211.26,166.45Z" style="fill:#ffbf9d"></path><path d="M215.54,172.68s.14,0,.36.06a1.18,1.18,0,0,0,.86-.27,3,3,0,0,0,.43-3,3.92,3.92,0,0,0-.87-1.51,1.4,1.4,0,0,0-1.16-.58.61.61,0,0,0-.56.54c0,.21.06.33,0,.35s-.18-.06-.22-.35a.73.73,0,0,1,.12-.49.87.87,0,0,1,.57-.38,1.67,1.67,0,0,1,1.53.6,4,4,0,0,1,1,1.68c.41,1.33.16,2.79-.69,3.38a1.31,1.31,0,0,1-1.1.19C215.61,172.83,215.52,172.7,215.54,172.68Z" style="fill:#ff9a6c"></path><path d="M176.56,156.37c-1.25-.23.78-4.71,3-6.76,3.33-3.09,9-6.19,12.93-6.37,4.77-.22,9.12.74,12.63,4a27,27,0,0,1,7.27,12.16,8.25,8.25,0,0,1,.41,4.3c-.43,1.75-1.87,3.25-1.13,5.22a2.89,2.89,0,0,1,0,2.22c-.78,1.67-2.64,1-3.71,0-2.29-2.08-3.47-5.08-4.58-8a20.34,20.34,0,0,1-1.66-6.36c0-1.19.13-2.39,0-3.59a4.13,4.13,0,0,0-1.56-3.1,3.54,3.54,0,0,0-.71-.36,7.16,7.16,0,0,0-7.19,1c-3.24,2.53-8.88,6.57-10.94,5.87a10.58,10.58,0,0,1-3.91-2Z" style="fill:#263238"></path><path d="M197.79,179.42c-.23.06.26,1.57-.68,3.05s-2.59,1.85-2.53,2.07.45.17,1.14,0a4,4,0,0,0,2.14-1.64,3.43,3.43,0,0,0,.47-2.53C198.18,179.7,197.89,179.38,197.79,179.42Z" style="fill:#263238"></path><path d="M254.4,213.46l13.31-1.33-1.37-25.08s-28.37.88-31.16,1.12c-4.13.36-11.84,3.32-11.84,3.32l7.76,19.68Z" style="fill:#5026D9"></path><path d="M232.36,189.83a12.23,12.23,0,0,0-1.2,4.1c-.29,2.64.58,6.32,2.3,10a13.79,13.79,0,0,0,7,7.23,12.76,12.76,0,0,0,4.2.83.9.9,0,0,1-.3.06,6,6,0,0,1-.88.06,9.09,9.09,0,0,1-3.15-.6,12.4,12.4,0,0,1-4-2.58,14.46,14.46,0,0,1-3.34-4.78c-1.75-3.73-2.59-7.53-2.2-10.26a9,9,0,0,1,.92-3.08A3.35,3.35,0,0,1,232.36,189.83Z" style="fill:#263238"></path><path d="M199.41,257.69l-18.67,5s-3.32-26.4-3.84-32.49a21.92,21.92,0,0,1,5.12-15.7l6.34,6.79Z" style="fill:#5026D9"></path><path d="M190,230.47c.14-.05,2.78,6.86,5.9,15.42s5.54,15.54,5.41,15.59-2.78-6.85-5.9-15.41S189.91,230.52,190,230.47Z" style="fill:#263238"></path></g></svg>
